<svg width="1523" height="924" viewBox="0 0 1523 924" fill="none" xmlns="http://www.w3.org/2000/svg">
<circle cx="279" cy="509" r="278.5" fill="white" stroke="#78736B"/>
<circle cx="286" cy="504.06" r="166.9" fill="#C4C4C4" stroke="white"/>
<circle cx="1243.9" cy="504.06" r="278.5" fill="white" stroke="#78736B"/>
<rect x="1156.98" y="275.78" width="175.7" height="175.7" rx="87.85" stroke="#78736B"/>
<rect x="1296.48" y="415.28" width="175.7" height="175.7" rx="87.85" stroke="#78736B"/>
<rect x="1017.48" y="415.28" width="175.7" height="175.7" rx="87.85" stroke="#78736B"/>
<rect x="1156.98" y="554.78" width="175.7" height="175.7" rx="87.85" stroke="#78736B"/>
<rect x="1058.4" y="0.5" width="371" height="175.7" rx="87.85" stroke="#78736B"/>
<rect x="965.4" y="225.56" width="138.5" height="138.5" rx="69.25" fill="white" stroke="#78736B"/>
<rect x="1383.9" y="644.06" width="138.5" height="138.5" rx="69.25" fill="white" stroke="#78736B"/>
<rect x="1383.9" y="225.56" width="138.5" height="138.5" rx="69.25" fill="white" stroke="#78736B"/>
<path d="M612.994 902.947C612.994 901.66 612.54 900.676 611.632 899.995C610.723 899.299 609.089 898.572 606.727 897.815C604.366 897.043 602.497 896.287 601.119 895.545C597.365 893.517 595.488 890.784 595.488 887.348C595.488 885.562 595.988 883.973 596.987 882.58C598.001 881.173 599.447 880.075 601.323 879.288C603.216 878.501 605.335 878.107 607.681 878.107C610.042 878.107 612.146 878.539 613.993 879.402C615.84 880.249 617.27 881.453 618.284 883.012C619.313 884.571 619.828 886.342 619.828 888.325H613.017C613.017 886.811 612.54 885.638 611.586 884.805C610.633 883.958 609.293 883.534 607.567 883.534C605.902 883.534 604.608 883.89 603.685 884.601C602.761 885.297 602.3 886.221 602.3 887.371C602.3 888.446 602.837 889.346 603.912 890.073C605.002 890.8 606.599 891.481 608.703 892.116C612.578 893.282 615.401 894.728 617.172 896.453C618.943 898.179 619.828 900.328 619.828 902.901C619.828 905.762 618.746 908.01 616.581 909.645C614.417 911.264 611.503 912.074 607.84 912.074C605.297 912.074 602.981 911.613 600.892 910.689C598.803 909.751 597.206 908.472 596.101 906.852C595.011 905.232 594.467 903.355 594.467 901.221H601.301C601.301 904.869 603.48 906.693 607.84 906.693C609.459 906.693 610.723 906.368 611.632 905.717C612.54 905.051 612.994 904.127 612.994 902.947ZM631.885 881.014V887.053H636.085V891.867H631.885V904.127C631.885 905.036 632.059 905.687 632.407 906.08C632.755 906.474 633.421 906.67 634.405 906.67C635.131 906.67 635.775 906.617 636.335 906.511V911.484C635.048 911.877 633.724 912.074 632.361 912.074C627.76 912.074 625.414 909.751 625.323 905.104V891.867H621.735V887.053H625.323V881.014H631.885ZM653.977 911.62C653.674 911.03 653.454 910.296 653.318 909.418C651.729 911.189 649.663 912.074 647.12 912.074C644.713 912.074 642.715 911.378 641.125 909.985C639.551 908.593 638.764 906.837 638.764 904.718C638.764 902.114 639.725 900.116 641.648 898.724C643.585 897.331 646.378 896.627 650.026 896.612H653.046V895.204C653.046 894.069 652.75 893.161 652.16 892.48C651.585 891.799 650.669 891.458 649.413 891.458C648.308 891.458 647.438 891.723 646.802 892.253C646.181 892.782 645.871 893.509 645.871 894.432H639.309C639.309 893.01 639.748 891.693 640.626 890.482C641.504 889.271 642.745 888.325 644.35 887.644C645.954 886.947 647.755 886.599 649.753 886.599C652.781 886.599 655.18 887.364 656.951 888.892C658.737 890.406 659.63 892.54 659.63 895.295V905.944C659.645 908.275 659.971 910.038 660.606 911.234V911.62H653.977ZM648.55 907.056C649.519 907.056 650.412 906.844 651.229 906.421C652.047 905.982 652.652 905.399 653.046 904.672V900.449H650.594C647.309 900.449 645.561 901.584 645.349 903.855L645.326 904.241C645.326 905.058 645.614 905.732 646.189 906.262C646.764 906.792 647.551 907.056 648.55 907.056ZM670.71 887.053L670.915 889.891C672.67 887.697 675.024 886.599 677.976 886.599C680.579 886.599 682.517 887.364 683.788 888.892C685.06 890.421 685.711 892.707 685.741 895.749V911.62H679.179V895.908C679.179 894.516 678.876 893.509 678.271 892.888C677.666 892.253 676.659 891.935 675.251 891.935C673.405 891.935 672.02 892.722 671.096 894.296V911.62H664.534V887.053H670.71ZM689.714 899.155C689.714 895.325 690.57 892.275 692.28 890.005C694.006 887.734 696.359 886.599 699.341 886.599C701.733 886.599 703.708 887.492 705.267 889.278V876.745H711.852V911.62H705.926L705.608 909.009C703.973 911.052 701.869 912.074 699.296 912.074C696.405 912.074 694.081 910.939 692.325 908.668C690.585 906.383 689.714 903.212 689.714 899.155ZM696.276 899.632C696.276 901.933 696.677 903.696 697.479 904.922C698.282 906.148 699.447 906.761 700.976 906.761C703.004 906.761 704.435 905.906 705.267 904.196V894.5C704.45 892.79 703.035 891.935 701.021 891.935C697.858 891.935 696.276 894.5 696.276 899.632ZM739.075 899.564C739.075 903.499 738.235 906.572 736.555 908.782C734.875 910.977 732.529 912.074 729.516 912.074C726.852 912.074 724.726 911.052 723.136 909.009L722.841 911.62H716.938V876.745H723.5V889.256C725.013 887.485 727.004 886.599 729.471 886.599C732.468 886.599 734.814 887.704 736.51 889.914C738.22 892.109 739.075 895.204 739.075 899.2V899.564ZM732.513 899.087C732.513 896.604 732.12 894.796 731.333 893.66C730.546 892.51 729.373 891.935 727.813 891.935C725.725 891.935 724.287 892.79 723.5 894.5V904.196C724.302 905.921 725.755 906.784 727.859 906.784C729.978 906.784 731.371 905.74 732.037 903.651C732.354 902.652 732.513 901.13 732.513 899.087ZM752.04 902.334L756.581 887.053H763.619L753.743 915.435L753.198 916.729C751.729 919.938 749.308 921.542 745.932 921.542C744.979 921.542 744.01 921.398 743.026 921.111V916.138L744.025 916.161C745.266 916.161 746.189 915.972 746.795 915.594C747.416 915.215 747.9 914.587 748.248 913.709L749.02 911.688L740.415 887.053H747.476L752.04 902.334Z" fill="black"/>
<path d="M838.094 904.327C838.094 903.04 837.64 902.056 836.732 901.375C835.823 900.679 834.189 899.952 831.827 899.195C829.466 898.423 827.597 897.667 826.219 896.925C822.465 894.896 820.588 892.164 820.588 888.728C820.588 886.942 821.088 885.353 822.087 883.96C823.101 882.552 824.547 881.455 826.424 880.668C828.316 879.881 830.435 879.487 832.781 879.487C835.142 879.487 837.246 879.919 839.093 880.781C840.94 881.629 842.37 882.833 843.384 884.392C844.414 885.951 844.928 887.722 844.928 889.705H838.117C838.117 888.191 837.64 887.018 836.686 886.185C835.733 885.338 834.393 884.914 832.667 884.914C831.002 884.914 829.708 885.27 828.785 885.981C827.862 886.677 827.4 887.601 827.4 888.751C827.4 889.826 827.937 890.726 829.012 891.453C830.102 892.179 831.699 892.861 833.803 893.496C837.678 894.662 840.501 896.107 842.272 897.833C844.043 899.559 844.928 901.708 844.928 904.281C844.928 907.142 843.846 909.39 841.681 911.025C839.517 912.644 836.603 913.454 832.94 913.454C830.397 913.454 828.081 912.992 825.992 912.069C823.903 911.131 822.306 909.852 821.201 908.232C820.112 906.612 819.567 904.735 819.567 902.601H826.401C826.401 906.249 828.581 908.073 832.94 908.073C834.56 908.073 835.823 907.748 836.732 907.097C837.64 906.431 838.094 905.507 838.094 904.327ZM856.054 913H849.469V878.125H856.054V913ZM872.787 913.454C869.185 913.454 866.248 912.349 863.978 910.139C861.722 907.929 860.595 904.985 860.595 901.307V900.671C860.595 898.204 861.072 896.001 862.025 894.064C862.979 892.111 864.326 890.613 866.067 889.568C867.823 888.509 869.821 887.979 872.061 887.979C875.421 887.979 878.062 889.039 879.985 891.158C881.922 893.277 882.891 896.281 882.891 900.172V902.851H867.247C867.459 904.455 868.095 905.742 869.155 906.711C870.229 907.679 871.584 908.164 873.219 908.164C875.747 908.164 877.722 907.248 879.145 905.417L882.369 909.027C881.385 910.419 880.053 911.509 878.373 912.296C876.693 913.068 874.831 913.454 872.787 913.454ZM872.038 893.292C870.736 893.292 869.677 893.731 868.859 894.609C868.057 895.487 867.542 896.743 867.315 898.378H876.443V897.856C876.413 896.403 876.019 895.282 875.262 894.495C874.505 893.693 873.431 893.292 872.038 893.292ZM897.945 913.454C894.342 913.454 891.406 912.349 889.135 910.139C886.88 907.929 885.752 904.985 885.752 901.307V900.671C885.752 898.204 886.229 896.001 887.182 894.064C888.136 892.111 889.483 890.613 891.224 889.568C892.98 888.509 894.978 887.979 897.218 887.979C900.578 887.979 903.22 889.039 905.142 891.158C907.08 893.277 908.048 896.281 908.048 900.172V902.851H892.405C892.616 904.455 893.252 905.742 894.312 906.711C895.386 907.679 896.741 908.164 898.376 908.164C900.904 908.164 902.879 907.248 904.302 905.417L907.526 909.027C906.542 910.419 905.21 911.509 903.53 912.296C901.85 913.068 899.988 913.454 897.945 913.454ZM897.195 893.292C895.894 893.292 894.834 893.731 894.017 894.609C893.214 895.487 892.7 896.743 892.473 898.378H901.6V897.856C901.57 896.403 901.176 895.282 900.419 894.495C899.663 893.693 898.588 893.292 897.195 893.292ZM933.909 900.944C933.909 904.728 933.047 907.763 931.321 910.048C929.611 912.319 927.295 913.454 924.373 913.454C921.891 913.454 919.885 912.591 918.356 910.866V922.445H911.795V888.433H917.88L918.107 890.84C919.696 888.933 921.77 887.979 924.328 887.979C927.355 887.979 929.709 889.099 931.389 891.339C933.069 893.58 933.909 896.667 933.909 900.603V900.944ZM927.348 900.467C927.348 898.181 926.939 896.418 926.122 895.177C925.319 893.935 924.146 893.315 922.602 893.315C920.544 893.315 919.128 894.102 918.356 895.676V905.734C919.159 907.354 920.589 908.164 922.648 908.164C925.781 908.164 927.348 905.598 927.348 900.467Z" fill="black"/>
<rect x="100.5" y="0.5" width="371" height="175.7" rx="87.85" stroke="#78736B"/>
</svg>
