<svg width="1651" height="667" viewBox="0 0 1651 667" fill="none" xmlns="http://www.w3.org/2000/svg">
<circle cx="558" cy="438" r="149.5" fill="white" stroke="#78736B"/>
<circle cx="558" cy="438" r="89.5" fill="#C4C4C4" stroke="white"/>
<rect x="526" y="338" width="65" height="75" rx="15" fill="black"/>
<rect x="737" y="588" width="65" height="25" rx="12.5" fill="black"/>
<rect x="842" y="588" width="65" height="25" rx="12.5" fill="black"/>
<rect x="526" y="463" width="65" height="75" rx="15" fill="black"/>
<rect x="583" y="405" width="75" height="65" rx="15" fill="black"/>
<rect x="458" y="405" width="75" height="65" rx="15" fill="black"/>
<path d="M558.5 358L573.655 384.25H543.345L558.5 358Z" fill="white"/>
<path d="M558.362 518L543.414 491.631L573.724 491.87L558.362 518Z" fill="white"/>
<path d="M477.137 437.713L503.321 422.444L503.453 452.754L477.137 437.713Z" fill="white"/>
<path d="M637.076 437.608L610.797 452.715L610.854 422.404L637.076 437.608Z" fill="white"/>
<circle cx="1073" cy="438" r="149.5" fill="white" stroke="#78736B"/>
<rect x="1036" y="325" width="75" height="75" rx="37.5" fill="#132B9B"/>
<rect x="1026.5" y="315.5" width="94" height="94" rx="47" stroke="#78736B"/>
<rect x="1101.5" y="390.5" width="94" height="94" rx="47" stroke="#78736B"/>
<rect x="951.5" y="390.5" width="94" height="94" rx="47" stroke="#78736B"/>
<rect x="1026.5" y="465.5" width="94" height="94" rx="47" stroke="#78736B"/>
<rect x="1036" y="475" width="75" height="75" rx="37.5" fill="#132B9B"/>
<rect x="1111" y="400" width="75" height="75" rx="37.5" fill="#132B9B"/>
<rect x="961" y="400" width="75" height="75" rx="37.5" fill="#132B9B"/>
<path d="M1069.08 366.977V379H1062.05V344.875H1075.36C1077.92 344.875 1080.17 345.344 1082.11 346.281C1084.06 347.219 1085.56 348.555 1086.61 350.289C1087.66 352.008 1088.18 353.969 1088.18 356.172C1088.18 359.516 1087.03 362.156 1084.73 364.094C1082.45 366.016 1079.29 366.977 1075.24 366.977H1069.08ZM1069.08 361.281H1075.36C1077.22 361.281 1078.63 360.844 1079.6 359.969C1080.59 359.094 1081.08 357.844 1081.08 356.219C1081.08 354.547 1080.59 353.195 1079.6 352.164C1078.62 351.133 1077.26 350.602 1075.52 350.57H1069.08V361.281Z" fill="white"/>
<rect x="983.5" y="177.5" width="179" height="74" rx="37" fill="white" stroke="#78736B"/>
<rect x="973.5" y="167.5" width="199" height="94" rx="47" stroke="#78736B"/>
<path d="M1072.68 218.508H1067.08V231H1060.05V196.875H1072.73C1076.76 196.875 1079.87 197.773 1082.05 199.57C1084.24 201.367 1085.34 203.906 1085.34 207.188C1085.34 209.516 1084.83 211.461 1083.81 213.023C1082.81 214.57 1081.29 215.805 1079.24 216.727L1086.62 230.672V231H1079.08L1072.68 218.508ZM1067.08 212.812H1072.75C1074.52 212.812 1075.88 212.367 1076.85 211.477C1077.82 210.57 1078.3 209.328 1078.3 207.75C1078.3 206.141 1077.84 204.875 1076.92 203.953C1076.02 203.031 1074.62 202.57 1072.73 202.57H1067.08V212.812Z" fill="black"/>
<path d="M1084.58 515.055H1071.08V529H1064.05V494.875H1086.27V500.57H1071.08V509.383H1084.58V515.055Z" fill="white"/>
<path d="M1011.82 454H1004.79V439.375H991.078V454H984.047V419.875H991.078V433.703H1004.79V419.875H1011.82V454Z" fill="white"/>
<path d="M1145.08 445.352H1160.01V451H1138.05V416.875H1145.08V445.352Z" fill="white"/>
<rect x="923.5" y="288.5" width="74" height="74" rx="37" fill="white" stroke="#78736B"/>
<rect x="933" y="298" width="55" height="55" rx="27.5" fill="#FBA018"/>
<rect x="1148.5" y="513.5" width="74" height="74" rx="37" fill="white" stroke="#78736B"/>
<rect x="1158" y="523" width="55" height="55" rx="27.5" fill="#FBA018"/>
<rect x="1148.5" y="288.5" width="74" height="74" rx="37" fill="white" stroke="#78736B"/>
<rect x="1158" y="298" width="55" height="55" rx="27.5" fill="#FBA018"/>
<path d="M733.803 652.337C733.803 651.645 733.559 651.116 733.071 650.75C732.583 650.376 731.704 649.985 730.434 649.578C729.165 649.163 728.16 648.756 727.419 648.357C725.401 647.267 724.392 645.798 724.392 643.951C724.392 642.99 724.66 642.136 725.197 641.387C725.743 640.63 726.52 640.04 727.529 639.617C728.546 639.194 729.685 638.982 730.947 638.982C732.216 638.982 733.347 639.214 734.34 639.678C735.333 640.134 736.102 640.781 736.647 641.619C737.201 642.457 737.478 643.41 737.478 644.476H733.815C733.815 643.662 733.559 643.031 733.046 642.583C732.534 642.128 731.813 641.9 730.886 641.9C729.991 641.9 729.295 642.091 728.798 642.474C728.302 642.848 728.054 643.344 728.054 643.963C728.054 644.541 728.343 645.025 728.92 645.416C729.506 645.806 730.365 646.172 731.496 646.514C733.579 647.141 735.097 647.918 736.049 648.846C737.001 649.773 737.478 650.929 737.478 652.312C737.478 653.851 736.896 655.059 735.732 655.938C734.568 656.809 733.002 657.244 731.032 657.244C729.665 657.244 728.42 656.996 727.297 656.5C726.174 655.995 725.315 655.307 724.721 654.437C724.135 653.566 723.842 652.557 723.842 651.409H727.517C727.517 653.37 728.688 654.351 731.032 654.351C731.903 654.351 732.583 654.176 733.071 653.826C733.559 653.468 733.803 652.972 733.803 652.337ZM743.959 640.545V643.792H746.218V646.38H743.959V652.972C743.959 653.46 744.053 653.81 744.24 654.021C744.427 654.233 744.785 654.339 745.314 654.339C745.705 654.339 746.051 654.31 746.352 654.253V656.927C745.66 657.138 744.948 657.244 744.216 657.244C741.742 657.244 740.48 655.995 740.432 653.497V646.38H738.503V643.792H740.432V640.545H743.959ZM755.837 657C755.674 656.683 755.556 656.288 755.483 655.816C754.628 656.768 753.518 657.244 752.15 657.244C750.856 657.244 749.782 656.87 748.928 656.121C748.081 655.372 747.658 654.428 747.658 653.289C747.658 651.889 748.175 650.815 749.208 650.066C750.25 649.318 751.752 648.939 753.713 648.931H755.336V648.174C755.336 647.564 755.178 647.076 754.86 646.709C754.551 646.343 754.059 646.16 753.383 646.16C752.789 646.16 752.321 646.303 751.979 646.587C751.646 646.872 751.479 647.263 751.479 647.759H747.951C747.951 646.994 748.187 646.286 748.659 645.635C749.131 644.984 749.799 644.476 750.661 644.109C751.524 643.735 752.492 643.548 753.566 643.548C755.194 643.548 756.484 643.959 757.436 644.781C758.396 645.595 758.876 646.742 758.876 648.223V653.948C758.885 655.201 759.06 656.15 759.401 656.792V657H755.837ZM752.919 654.546C753.44 654.546 753.92 654.432 754.36 654.205C754.799 653.969 755.125 653.655 755.336 653.265V650.994H754.018C752.252 650.994 751.312 651.604 751.198 652.825L751.186 653.033C751.186 653.472 751.341 653.834 751.65 654.119C751.959 654.404 752.382 654.546 752.919 654.546ZM764.833 643.792L764.943 645.318C765.887 644.138 767.153 643.548 768.74 643.548C770.139 643.548 771.181 643.959 771.865 644.781C772.548 645.603 772.898 646.832 772.915 648.467V657H769.387V648.553C769.387 647.804 769.224 647.263 768.898 646.929C768.573 646.587 768.032 646.417 767.275 646.417C766.282 646.417 765.537 646.84 765.041 647.686V657H761.513V643.792H764.833ZM775.051 650.298C775.051 648.239 775.511 646.6 776.43 645.379C777.358 644.158 778.623 643.548 780.227 643.548C781.512 643.548 782.574 644.028 783.413 644.988V638.25H786.953V657H783.767L783.596 655.596C782.717 656.695 781.586 657.244 780.202 657.244C778.648 657.244 777.399 656.634 776.455 655.413C775.519 654.184 775.051 652.479 775.051 650.298ZM778.579 650.555C778.579 651.792 778.794 652.74 779.226 653.399C779.657 654.058 780.284 654.388 781.105 654.388C782.196 654.388 782.965 653.928 783.413 653.008V647.796C782.973 646.876 782.212 646.417 781.13 646.417C779.429 646.417 778.579 647.796 778.579 650.555ZM801.589 650.518C801.589 652.634 801.137 654.286 800.234 655.474C799.331 656.654 798.069 657.244 796.45 657.244C795.017 657.244 793.874 656.695 793.02 655.596L792.861 657H789.687V638.25H793.215V644.976C794.029 644.024 795.099 643.548 796.425 643.548C798.037 643.548 799.298 644.142 800.209 645.33C801.129 646.51 801.589 648.174 801.589 650.323V650.518ZM798.061 650.262C798.061 648.927 797.849 647.955 797.426 647.344C797.003 646.726 796.372 646.417 795.534 646.417C794.411 646.417 793.638 646.876 793.215 647.796V653.008C793.646 653.936 794.427 654.4 795.559 654.4C796.698 654.4 797.447 653.838 797.805 652.715C797.976 652.178 798.061 651.36 798.061 650.262ZM808.559 652.007L811 643.792H814.785L809.475 659.051L809.182 659.747C808.392 661.472 807.09 662.334 805.275 662.334C804.763 662.334 804.242 662.257 803.713 662.103V659.429L804.25 659.441C804.917 659.441 805.414 659.34 805.739 659.136C806.073 658.933 806.333 658.595 806.521 658.123L806.936 657.037L802.309 643.792H806.105L808.559 652.007Z" fill="black"/>
<path d="M852.803 652.337C852.803 651.645 852.559 651.116 852.071 650.75C851.583 650.376 850.704 649.985 849.434 649.578C848.165 649.163 847.16 648.756 846.419 648.357C844.401 647.267 843.392 645.798 843.392 643.951C843.392 642.99 843.66 642.136 844.197 641.387C844.743 640.63 845.52 640.04 846.529 639.617C847.546 639.194 848.685 638.982 849.947 638.982C851.216 638.982 852.347 639.214 853.34 639.678C854.333 640.134 855.102 640.781 855.647 641.619C856.201 642.457 856.478 643.41 856.478 644.476H852.815C852.815 643.662 852.559 643.031 852.046 642.583C851.534 642.128 850.813 641.9 849.886 641.9C848.991 641.9 848.295 642.091 847.798 642.474C847.302 642.848 847.054 643.344 847.054 643.963C847.054 644.541 847.343 645.025 847.92 645.416C848.506 645.806 849.365 646.172 850.496 646.514C852.579 647.141 854.097 647.918 855.049 648.846C856.001 649.773 856.478 650.929 856.478 652.312C856.478 653.851 855.896 655.059 854.732 655.938C853.568 656.809 852.002 657.244 850.032 657.244C848.665 657.244 847.42 656.996 846.297 656.5C845.174 655.995 844.315 655.307 843.721 654.437C843.135 653.566 842.842 652.557 842.842 651.409H846.517C846.517 653.37 847.688 654.351 850.032 654.351C850.903 654.351 851.583 654.176 852.071 653.826C852.559 653.468 852.803 652.972 852.803 652.337ZM862.459 657H858.919V638.25H862.459V657ZM871.456 657.244C869.519 657.244 867.94 656.65 866.719 655.462C865.507 654.274 864.9 652.691 864.9 650.713V650.372C864.9 649.045 865.157 647.861 865.669 646.819C866.182 645.77 866.906 644.964 867.842 644.402C868.786 643.833 869.861 643.548 871.065 643.548C872.872 643.548 874.292 644.118 875.325 645.257C876.367 646.396 876.888 648.012 876.888 650.103V651.543H868.477C868.591 652.406 868.933 653.098 869.502 653.619C870.08 654.139 870.809 654.4 871.688 654.4C873.047 654.4 874.109 653.908 874.874 652.923L876.607 654.864C876.078 655.612 875.362 656.198 874.458 656.622C873.555 657.037 872.554 657.244 871.456 657.244ZM871.053 646.404C870.353 646.404 869.783 646.64 869.344 647.112C868.912 647.584 868.636 648.26 868.514 649.139H873.421V648.858C873.405 648.077 873.193 647.474 872.786 647.051C872.379 646.62 871.801 646.404 871.053 646.404ZM884.981 657.244C883.044 657.244 881.465 656.65 880.245 655.462C879.032 654.274 878.426 652.691 878.426 650.713V650.372C878.426 649.045 878.682 647.861 879.195 646.819C879.708 645.77 880.432 644.964 881.368 644.402C882.312 643.833 883.386 643.548 884.59 643.548C886.397 643.548 887.817 644.118 888.851 645.257C889.892 646.396 890.413 648.012 890.413 650.103V651.543H882.002C882.116 652.406 882.458 653.098 883.028 653.619C883.606 654.139 884.334 654.4 885.213 654.4C886.572 654.4 887.634 653.908 888.399 652.923L890.132 654.864C889.603 655.612 888.887 656.198 887.984 656.622C887.081 657.037 886.08 657.244 884.981 657.244ZM884.578 646.404C883.878 646.404 883.309 646.64 882.869 647.112C882.438 647.584 882.161 648.26 882.039 649.139H886.946V648.858C886.93 648.077 886.718 647.474 886.312 647.051C885.905 646.62 885.327 646.404 884.578 646.404ZM904.317 650.518C904.317 652.553 903.853 654.184 902.925 655.413C902.006 656.634 900.761 657.244 899.19 657.244C897.855 657.244 896.777 656.78 895.955 655.853V662.078H892.427V643.792H895.699L895.821 645.086C896.675 644.061 897.79 643.548 899.166 643.548C900.793 643.548 902.059 644.15 902.962 645.354C903.865 646.559 904.317 648.219 904.317 650.335V650.518ZM900.789 650.262C900.789 649.033 900.569 648.085 900.13 647.417C899.699 646.75 899.068 646.417 898.238 646.417C897.131 646.417 896.37 646.84 895.955 647.686V653.094C896.386 653.965 897.155 654.4 898.262 654.4C899.947 654.4 900.789 653.021 900.789 650.262Z" fill="black"/>
<rect x="458.5" y="167.5" width="199" height="94" rx="47" stroke="#78736B"/>
<rect x="468.5" y="177.5" width="179" height="74" rx="37" fill="white" stroke="#78736B"/>
<path d="M554.078 225.352H569.008V231H547.047V196.875H554.078V225.352Z" fill="black"/>
<path d="M962.689 337H957.75V317.962L951.854 319.791V315.774L962.159 312.083H962.689V337Z" fill="white"/>
<path d="M1193.75 337H1176.69V333.616L1184.74 325.037C1185.85 323.829 1186.66 322.776 1187.19 321.875C1187.72 320.975 1187.99 320.121 1187.99 319.312C1187.99 318.207 1187.71 317.341 1187.15 316.714C1186.59 316.076 1185.8 315.757 1184.76 315.757C1183.64 315.757 1182.76 316.145 1182.11 316.919C1181.47 317.683 1181.15 318.691 1181.15 319.944H1176.2C1176.2 318.429 1176.56 317.045 1177.27 315.792C1178 314.538 1179.03 313.558 1180.35 312.852C1181.67 312.134 1183.17 311.775 1184.84 311.775C1187.41 311.775 1189.4 312.391 1190.81 313.621C1192.23 314.852 1192.94 316.589 1192.94 318.833C1192.94 320.064 1192.63 321.317 1191.99 322.593C1191.35 323.869 1190.26 325.356 1188.71 327.054L1183.05 333.018H1193.75V337Z" fill="white"/>
<path d="M1181.72 547.371H1184.35C1185.6 547.371 1186.53 547.058 1187.13 546.431C1187.74 545.805 1188.04 544.973 1188.04 543.936C1188.04 542.933 1187.74 542.153 1187.13 541.595C1186.54 541.036 1185.72 540.757 1184.67 540.757C1183.73 540.757 1182.94 541.019 1182.3 541.543C1181.66 542.056 1181.34 542.728 1181.34 543.56H1176.4C1176.4 542.261 1176.75 541.099 1177.44 540.074C1178.15 539.037 1179.13 538.228 1180.38 537.647C1181.65 537.066 1183.04 536.775 1184.55 536.775C1187.19 536.775 1189.25 537.408 1190.74 538.672C1192.23 539.926 1192.98 541.657 1192.98 543.868C1192.98 545.007 1192.63 546.055 1191.94 547.012C1191.24 547.969 1190.33 548.704 1189.2 549.217C1190.6 549.718 1191.65 550.47 1192.33 551.473C1193.02 552.475 1193.37 553.66 1193.37 555.027C1193.37 557.238 1192.56 559.009 1190.94 560.342C1189.34 561.675 1187.21 562.342 1184.55 562.342C1182.07 562.342 1180.04 561.687 1178.45 560.376C1176.88 559.066 1176.09 557.334 1176.09 555.181H1181.03C1181.03 556.115 1181.38 556.879 1182.08 557.471C1182.78 558.064 1183.65 558.36 1184.67 558.36C1185.85 558.36 1186.76 558.052 1187.42 557.437C1188.1 556.81 1188.43 555.984 1188.43 554.959C1188.43 552.475 1187.07 551.233 1184.33 551.233H1181.72V547.371Z" fill="white"/>
<line x1="1072" y1="167.003" x2="1072" y2="89.9967" stroke="#132B9B"/>
<line x1="1074.5" y1="275" x2="1074.5" y2="315" stroke="#132B9B"/>
<line x1="959.5" y1="288.004" x2="959.5" y2="21.996" stroke="#132B9B"/>
<line x1="1074.5" y1="558" x2="1074.5" y2="601" stroke="#132B9B"/>
<line x1="998.5" y1="485" x2="998.5" y2="649" stroke="#132B9B"/>
<line x1="558.5" y1="90" x2="558.5" y2="146" stroke="#132B9B"/>
<line x1="620.5" y1="470" x2="620.5" y2="563" stroke="#132B9B"/>
<line x1="1072" y1="89.5" x2="1302.52" y2="89.5" stroke="#132B9B"/>
<line x1="961" y1="23.5" x2="1191.52" y2="23.5" stroke="#132B9B"/>
<line x1="1074" y1="274.5" x2="1304.52" y2="274.5" stroke="#132B9B"/>
<line x1="1074" y1="274.5" x2="1304.52" y2="274.5" stroke="#132B9B"/>
<line x1="1223" y1="549.5" x2="1453.52" y2="549.5" stroke="#132B9B"/>
<line x1="1223" y1="325.5" x2="1453.52" y2="325.5" stroke="#132B9B"/>
<line x1="1195.99" y1="436" x2="1454.01" y2="436" stroke="#132B9B"/>
<line x1="200" y1="436.5" x2="458.017" y2="436.5" stroke="#132B9B"/>
<line x1="199.999" y1="563.5" x2="619.999" y2="562.516" stroke="#132B9B"/>
<line x1="268" y1="375.5" x2="526.017" y2="375.5" stroke="#132B9B"/>
<line x1="268" y1="500.5" x2="526.017" y2="500.5" stroke="#132B9B"/>
<line x1="1074" y1="600.5" x2="1304.52" y2="600.5" stroke="#132B9B"/>
<line x1="998" y1="648.5" x2="1192.58" y2="648.5" stroke="#132B9B"/>
<line x1="327" y1="89.5" x2="557.521" y2="89.5" stroke="#132B9B"/>
<path d="M1343.95 79.3086H1335.23V103H1329.38V79.3086H1320.78V74.5625H1343.95V79.3086ZM1358.3 100.852C1356.91 102.544 1354.98 103.391 1352.52 103.391C1350.25 103.391 1348.52 102.74 1347.32 101.438C1346.14 100.135 1345.53 98.2279 1345.51 95.7148V81.8672H1351.15V95.5195C1351.15 97.7201 1352.15 98.8203 1354.16 98.8203C1356.07 98.8203 1357.39 98.1562 1358.11 96.8281V81.8672H1363.77V103H1358.46L1358.3 100.852ZM1379.9 87.1602C1379.13 87.056 1378.46 87.0039 1377.87 87.0039C1375.74 87.0039 1374.34 87.7266 1373.67 89.1719V103H1368.03V81.8672H1373.36L1373.52 84.3867C1374.65 82.4466 1376.22 81.4766 1378.22 81.4766C1378.85 81.4766 1379.43 81.5612 1379.98 81.7305L1379.9 87.1602ZM1387.83 81.8672L1388.01 84.3086C1389.52 82.4206 1391.54 81.4766 1394.08 81.4766C1396.32 81.4766 1397.99 82.1341 1399.08 83.4492C1400.18 84.7643 1400.74 86.7305 1400.76 89.3477V103H1395.12V89.4844C1395.12 88.2865 1394.86 87.4206 1394.34 86.8867C1393.82 86.3398 1392.95 86.0664 1391.74 86.0664C1390.15 86.0664 1388.96 86.7435 1388.16 88.0977V103H1382.52V81.8672H1387.83ZM1425.92 92.5898H1421.25V103H1415.39V74.5625H1425.96C1429.32 74.5625 1431.91 75.3112 1433.73 76.8086C1435.55 78.306 1436.46 80.4219 1436.46 83.1562C1436.46 85.0964 1436.04 86.7174 1435.2 88.0195C1434.36 89.3086 1433.09 90.3372 1431.39 91.1055L1437.54 102.727V103H1431.25L1425.92 92.5898ZM1421.25 87.8438H1425.98C1427.45 87.8438 1428.59 87.4727 1429.39 86.7305C1430.2 85.9753 1430.61 84.9401 1430.61 83.625C1430.61 82.2839 1430.22 81.2292 1429.45 80.4609C1428.7 79.6927 1427.53 79.3086 1425.96 79.3086H1421.25V87.8438ZM1446.52 103H1440.86V81.8672H1446.52V103ZM1440.53 76.3984C1440.53 75.5521 1440.81 74.8555 1441.37 74.3086C1441.94 73.7617 1442.71 73.4883 1443.69 73.4883C1444.65 73.4883 1445.42 73.7617 1446 74.3086C1446.57 74.8555 1446.86 75.5521 1446.86 76.3984C1446.86 77.2578 1446.56 77.9609 1445.98 78.5078C1445.4 79.0547 1444.64 79.3281 1443.69 79.3281C1442.74 79.3281 1441.97 79.0547 1441.39 78.5078C1440.81 77.9609 1440.53 77.2578 1440.53 76.3984ZM1450.37 92.2773C1450.37 89.0352 1451.14 86.4245 1452.68 84.4453C1454.23 82.4661 1456.31 81.4766 1458.93 81.4766C1461.24 81.4766 1463.05 82.2708 1464.34 83.8594L1464.57 81.8672H1469.69V102.297C1469.69 104.146 1469.26 105.754 1468.42 107.121C1467.58 108.488 1466.41 109.53 1464.88 110.246C1463.36 110.962 1461.58 111.32 1459.53 111.32C1457.98 111.32 1456.47 111.008 1455 110.383C1453.53 109.771 1452.42 108.977 1451.66 108L1454.16 104.562C1455.57 106.138 1457.27 106.926 1459.28 106.926C1460.77 106.926 1461.94 106.522 1462.77 105.715C1463.61 104.921 1464.02 103.788 1464.02 102.316V101.184C1462.72 102.655 1461.01 103.391 1458.89 103.391C1456.35 103.391 1454.29 102.401 1452.71 100.422C1451.15 98.4297 1450.37 95.793 1450.37 92.5117V92.2773ZM1456.02 92.6875C1456.02 94.6016 1456.4 96.1055 1457.17 97.1992C1457.94 98.2799 1458.99 98.8203 1460.33 98.8203C1462.05 98.8203 1463.28 98.1758 1464.02 96.8867V88C1463.27 86.7109 1462.05 86.0664 1460.37 86.0664C1459.02 86.0664 1457.95 86.6198 1457.17 87.7266C1456.4 88.8333 1456.02 90.487 1456.02 92.6875ZM1479.55 84.1719C1481.05 82.375 1482.93 81.4766 1485.2 81.4766C1489.78 81.4766 1492.1 84.1393 1492.17 89.4648V103H1486.52V89.6211C1486.52 88.4102 1486.26 87.5182 1485.74 86.9453C1485.22 86.3594 1484.36 86.0664 1483.14 86.0664C1481.49 86.0664 1480.29 86.7044 1479.55 87.9805V103H1473.91V73H1479.55V84.1719ZM1503.18 76.6719V81.8672H1506.8V86.0078H1503.18V96.5547C1503.18 97.3359 1503.33 97.8958 1503.63 98.2344C1503.93 98.5729 1504.51 98.7422 1505.35 98.7422C1505.98 98.7422 1506.53 98.6966 1507.01 98.6055V102.883C1505.9 103.221 1504.77 103.391 1503.59 103.391C1499.64 103.391 1497.62 101.392 1497.54 97.3945V86.0078H1494.45V81.8672H1497.54V76.6719H1503.18Z" fill="black"/>
<path d="M1328.4 278.98V289H1322.54V260.562H1333.63C1335.77 260.562 1337.64 260.953 1339.26 261.734C1340.89 262.516 1342.14 263.629 1343.01 265.074C1343.88 266.507 1344.32 268.141 1344.32 269.977C1344.32 272.763 1343.36 274.964 1341.45 276.578C1339.54 278.18 1336.91 278.98 1333.54 278.98H1328.4ZM1328.4 274.234H1333.63C1335.18 274.234 1336.36 273.87 1337.17 273.141C1337.99 272.411 1338.4 271.37 1338.4 270.016C1338.4 268.622 1337.99 267.496 1337.17 266.637C1336.35 265.777 1335.21 265.335 1333.77 265.309H1328.4V274.234ZM1360.64 286.852C1359.25 288.544 1357.32 289.391 1354.86 289.391C1352.6 289.391 1350.87 288.74 1349.67 287.438C1348.48 286.135 1347.88 284.228 1347.85 281.715V267.867H1353.5V281.52C1353.5 283.72 1354.5 284.82 1356.5 284.82C1358.42 284.82 1359.73 284.156 1360.45 282.828V267.867H1366.11V289H1360.8L1360.64 286.852ZM1381.82 283.16C1381.82 282.47 1381.47 281.93 1380.78 281.539C1380.1 281.135 1379.01 280.777 1377.5 280.465C1372.47 279.41 1369.96 277.275 1369.96 274.059C1369.96 272.184 1370.74 270.621 1372.29 269.371C1373.85 268.108 1375.89 267.477 1378.4 267.477C1381.08 267.477 1383.22 268.108 1384.82 269.371C1386.44 270.634 1387.25 272.275 1387.25 274.293H1381.6C1381.6 273.486 1381.34 272.822 1380.82 272.301C1380.3 271.767 1379.49 271.5 1378.38 271.5C1377.43 271.5 1376.69 271.715 1376.17 272.145C1375.65 272.574 1375.39 273.121 1375.39 273.785C1375.39 274.41 1375.68 274.918 1376.27 275.309C1376.87 275.686 1377.87 276.018 1379.28 276.305C1380.68 276.578 1381.87 276.891 1382.83 277.242C1385.81 278.336 1387.3 280.23 1387.3 282.926C1387.3 284.853 1386.48 286.415 1384.82 287.613C1383.17 288.798 1381.04 289.391 1378.42 289.391C1376.65 289.391 1375.07 289.078 1373.69 288.453C1372.32 287.815 1371.25 286.949 1370.47 285.855C1369.69 284.749 1369.3 283.557 1369.3 282.281H1374.65C1374.7 283.284 1375.07 284.052 1375.76 284.586C1376.45 285.12 1377.38 285.387 1378.54 285.387C1379.62 285.387 1380.43 285.185 1380.98 284.781C1381.54 284.365 1381.82 283.824 1381.82 283.16ZM1396.46 270.172C1397.96 268.375 1399.84 267.477 1402.11 267.477C1406.69 267.477 1409.02 270.139 1409.08 275.465V289H1403.44V275.621C1403.44 274.41 1403.18 273.518 1402.66 272.945C1402.14 272.359 1401.27 272.066 1400.06 272.066C1398.4 272.066 1397.21 272.704 1396.46 273.98V289H1390.82V259H1396.46V270.172ZM1445.2 260.562V279.293C1445.2 282.405 1444.22 284.866 1442.27 286.676C1440.33 288.486 1437.67 289.391 1434.3 289.391C1430.98 289.391 1428.34 288.512 1426.39 286.754C1424.43 284.996 1423.44 282.581 1423.4 279.508V260.562H1429.26V279.332C1429.26 281.194 1429.7 282.555 1430.59 283.414C1431.48 284.26 1432.72 284.684 1434.3 284.684C1437.59 284.684 1439.26 282.952 1439.32 279.488V260.562H1445.2ZM1468.65 278.629C1468.65 281.884 1467.91 284.495 1466.43 286.461C1464.95 288.414 1462.96 289.391 1460.45 289.391C1458.31 289.391 1456.59 288.648 1455.27 287.164V297.125H1449.63V267.867H1454.86L1455.06 269.938C1456.43 268.297 1458.21 267.477 1460.41 267.477C1463.01 267.477 1465.04 268.44 1466.48 270.367C1467.93 272.294 1468.65 274.951 1468.65 278.336V278.629ZM1463.01 278.219C1463.01 276.253 1462.66 274.736 1461.95 273.668C1461.26 272.6 1460.25 272.066 1458.93 272.066C1457.15 272.066 1455.94 272.743 1455.27 274.098V282.75C1455.96 284.143 1457.19 284.84 1458.96 284.84C1461.66 284.84 1463.01 282.633 1463.01 278.219Z" fill="black"/>
<path d="M1483.54 342V313.562H1492.29C1494.79 313.562 1497.02 314.129 1498.99 315.262C1500.97 316.382 1502.51 317.983 1503.62 320.066C1504.72 322.137 1505.28 324.493 1505.28 327.137V328.445C1505.28 331.089 1504.73 333.439 1503.64 335.496C1502.56 337.553 1501.03 339.148 1499.05 340.281C1497.07 341.414 1494.83 341.987 1492.35 342H1483.54ZM1489.4 318.309V337.293H1492.23C1494.52 337.293 1496.27 336.544 1497.48 335.047C1498.7 333.549 1499.31 331.408 1499.34 328.621V327.117C1499.34 324.227 1498.74 322.039 1497.54 320.555C1496.35 319.057 1494.59 318.309 1492.29 318.309H1489.4ZM1521.43 342C1521.17 341.492 1520.98 340.861 1520.86 340.105C1519.5 341.629 1517.72 342.391 1515.53 342.391C1513.46 342.391 1511.74 341.792 1510.38 340.594C1509.02 339.396 1508.34 337.885 1508.34 336.062C1508.34 333.823 1509.17 332.104 1510.82 330.906C1512.49 329.708 1514.89 329.103 1518.03 329.09H1520.63V327.879C1520.63 326.902 1520.38 326.121 1519.87 325.535C1519.37 324.949 1518.58 324.656 1517.5 324.656C1516.55 324.656 1515.8 324.884 1515.26 325.34C1514.72 325.796 1514.46 326.421 1514.46 327.215H1508.81C1508.81 325.991 1509.19 324.858 1509.95 323.816C1510.7 322.775 1511.77 321.961 1513.15 321.375C1514.53 320.776 1516.08 320.477 1517.8 320.477C1520.4 320.477 1522.46 321.134 1523.99 322.449C1525.52 323.751 1526.29 325.587 1526.29 327.957V337.117C1526.31 339.122 1526.59 340.639 1527.13 341.668V342H1521.43ZM1516.76 338.074C1517.6 338.074 1518.36 337.892 1519.07 337.527C1519.77 337.15 1520.29 336.648 1520.63 336.023V332.391H1518.52C1515.69 332.391 1514.19 333.367 1514.01 335.32L1513.99 335.652C1513.99 336.355 1514.24 336.935 1514.73 337.391C1515.23 337.846 1515.9 338.074 1516.76 338.074ZM1535.82 320.867L1536 323.309C1537.51 321.421 1539.54 320.477 1542.07 320.477C1544.31 320.477 1545.98 321.134 1547.07 322.449C1548.17 323.764 1548.73 325.73 1548.75 328.348V342H1543.11V328.484C1543.11 327.286 1542.85 326.421 1542.33 325.887C1541.81 325.34 1540.94 325.066 1539.73 325.066C1538.14 325.066 1536.95 325.743 1536.16 327.098V342H1530.51V320.867H1535.82ZM1561.84 337.84C1562.88 337.84 1563.73 337.553 1564.38 336.98C1565.03 336.408 1565.37 335.646 1565.39 334.695H1570.69C1570.67 336.128 1570.28 337.443 1569.52 338.641C1568.75 339.826 1567.69 340.75 1566.35 341.414C1565.02 342.065 1563.55 342.391 1561.94 342.391C1558.92 342.391 1556.53 341.434 1554.79 339.52C1553.04 337.592 1552.17 334.936 1552.17 331.551V331.18C1552.17 327.924 1553.04 325.327 1554.77 323.387C1556.5 321.447 1558.88 320.477 1561.9 320.477C1564.54 320.477 1566.66 321.232 1568.25 322.742C1569.85 324.24 1570.66 326.238 1570.69 328.738H1565.39C1565.37 327.645 1565.03 326.759 1564.38 326.082C1563.73 325.392 1562.87 325.047 1561.8 325.047C1560.49 325.047 1559.49 325.529 1558.81 326.492C1558.15 327.443 1557.82 328.992 1557.82 331.141V331.727C1557.82 333.901 1558.15 335.464 1558.81 336.414C1559.48 337.365 1560.49 337.84 1561.84 337.84ZM1583.64 342.391C1580.54 342.391 1578.01 341.44 1576.06 339.539C1574.12 337.638 1573.15 335.105 1573.15 331.941V331.395C1573.15 329.272 1573.56 327.378 1574.38 325.711C1575.2 324.031 1576.36 322.742 1577.86 321.844C1579.37 320.932 1581.08 320.477 1583.01 320.477C1585.9 320.477 1588.17 321.388 1589.83 323.211C1591.49 325.034 1592.33 327.618 1592.33 330.965V333.27H1578.87C1579.05 334.65 1579.6 335.757 1580.51 336.59C1581.44 337.423 1582.6 337.84 1584.01 337.84C1586.18 337.84 1587.88 337.052 1589.11 335.477L1591.88 338.582C1591.03 339.78 1589.89 340.717 1588.44 341.395C1587 342.059 1585.39 342.391 1583.64 342.391ZM1582.99 325.047C1581.87 325.047 1580.96 325.424 1580.26 326.18C1579.57 326.935 1579.12 328.016 1578.93 329.422H1586.78V328.973C1586.76 327.723 1586.42 326.759 1585.77 326.082C1585.11 325.392 1584.19 325.047 1582.99 325.047ZM1624.77 342H1605.28V338.133L1614.48 328.328C1615.74 326.948 1616.67 325.743 1617.27 324.715C1617.88 323.686 1618.19 322.71 1618.19 321.785C1618.19 320.522 1617.87 319.533 1617.23 318.816C1616.59 318.087 1615.68 317.723 1614.5 317.723C1613.22 317.723 1612.21 318.165 1611.47 319.051C1610.74 319.923 1610.38 321.076 1610.38 322.508H1604.71C1604.71 320.776 1605.12 319.194 1605.94 317.762C1606.77 316.329 1607.95 315.21 1609.46 314.402C1610.97 313.582 1612.68 313.172 1614.59 313.172C1617.52 313.172 1619.8 313.875 1621.41 315.281C1623.04 316.688 1623.85 318.673 1623.85 321.238C1623.85 322.645 1623.49 324.077 1622.76 325.535C1622.03 326.993 1620.78 328.693 1619.01 330.633L1612.54 337.449H1624.77V342Z" fill="black"/>
<path d="M1485.4 440.293H1497.84V445H1479.54V416.562H1485.4V440.293ZM1513.09 445C1512.83 444.492 1512.64 443.861 1512.53 443.105C1511.16 444.629 1509.38 445.391 1507.2 445.391C1505.12 445.391 1503.41 444.792 1502.04 443.594C1500.68 442.396 1500.01 440.885 1500.01 439.062C1500.01 436.823 1500.83 435.104 1502.49 433.906C1504.15 432.708 1506.56 432.103 1509.7 432.09H1512.29V430.879C1512.29 429.902 1512.04 429.121 1511.53 428.535C1511.04 427.949 1510.25 427.656 1509.17 427.656C1508.22 427.656 1507.47 427.884 1506.92 428.34C1506.39 428.796 1506.12 429.421 1506.12 430.215H1500.48C1500.48 428.991 1500.85 427.858 1501.61 426.816C1502.36 425.775 1503.43 424.961 1504.81 424.375C1506.19 423.776 1507.74 423.477 1509.46 423.477C1512.07 423.477 1514.13 424.134 1515.65 425.449C1517.19 426.751 1517.96 428.587 1517.96 430.957V440.117C1517.97 442.122 1518.25 443.639 1518.8 444.668V445H1513.09ZM1508.43 441.074C1509.26 441.074 1510.03 440.892 1510.73 440.527C1511.43 440.15 1511.95 439.648 1512.29 439.023V435.391H1510.18C1507.36 435.391 1505.85 436.367 1505.67 438.32L1505.65 438.652C1505.65 439.355 1505.9 439.935 1506.39 440.391C1506.89 440.846 1507.57 441.074 1508.43 441.074ZM1529.87 437.012L1533.78 423.867H1539.83L1531.34 448.281L1530.87 449.395C1529.6 452.155 1527.52 453.535 1524.62 453.535C1523.8 453.535 1522.96 453.411 1522.12 453.164V448.887L1522.98 448.906C1524.04 448.906 1524.84 448.743 1525.36 448.418C1525.89 448.092 1526.31 447.552 1526.61 446.797L1527.27 445.059L1519.87 423.867H1525.95L1529.87 437.012ZM1552.39 445V416.562H1561.14C1563.64 416.562 1565.87 417.129 1567.84 418.262C1569.82 419.382 1571.36 420.983 1572.47 423.066C1573.58 425.137 1574.13 427.493 1574.13 430.137V431.445C1574.13 434.089 1573.58 436.439 1572.49 438.496C1571.41 440.553 1569.88 442.148 1567.9 443.281C1565.92 444.414 1563.69 444.987 1561.2 445H1552.39ZM1558.25 421.309V440.293H1561.08C1563.37 440.293 1565.12 439.544 1566.34 438.047C1567.55 436.549 1568.17 434.408 1568.19 431.621V430.117C1568.19 427.227 1567.59 425.039 1566.39 423.555C1565.2 422.057 1563.45 421.309 1561.14 421.309H1558.25ZM1577.16 434.238C1577.16 432.142 1577.56 430.273 1578.37 428.633C1579.17 426.992 1580.33 425.723 1581.84 424.824C1583.37 423.926 1585.13 423.477 1587.14 423.477C1589.99 423.477 1592.31 424.349 1594.11 426.094C1595.92 427.839 1596.93 430.208 1597.14 433.203L1597.18 434.648C1597.18 437.891 1596.27 440.495 1594.46 442.461C1592.65 444.414 1590.22 445.391 1587.18 445.391C1584.13 445.391 1581.69 444.414 1579.87 442.461C1578.06 440.508 1577.16 437.852 1577.16 434.492V434.238ZM1582.8 434.648C1582.8 436.654 1583.18 438.19 1583.93 439.258C1584.69 440.312 1585.77 440.84 1587.18 440.84C1588.54 440.84 1589.61 440.319 1590.38 439.277C1591.15 438.223 1591.53 436.543 1591.53 434.238C1591.53 432.272 1591.15 430.749 1590.38 429.668C1589.61 428.587 1588.53 428.047 1587.14 428.047C1585.76 428.047 1584.69 428.587 1583.93 429.668C1583.18 430.736 1582.8 432.396 1582.8 434.648ZM1619.03 437.324L1621.8 423.867H1627.25L1621.86 445H1617.14L1613.13 431.699L1609.13 445H1604.42L1599.03 423.867H1604.48L1607.23 437.305L1611.1 423.867H1615.18L1619.03 437.324ZM1635.26 423.867L1635.44 426.309C1636.95 424.421 1638.97 423.477 1641.51 423.477C1643.75 423.477 1645.42 424.134 1646.51 425.449C1647.61 426.764 1648.17 428.73 1648.19 431.348V445H1642.55V431.484C1642.55 430.286 1642.29 429.421 1641.77 428.887C1641.24 428.34 1640.38 428.066 1639.17 428.066C1637.58 428.066 1636.39 428.743 1635.59 430.098V445H1629.95V423.867H1635.26Z" fill="black"/>
<path d="M1483.54 554V525.562H1492.29C1494.79 525.562 1497.02 526.129 1498.99 527.262C1500.97 528.382 1502.51 529.983 1503.62 532.066C1504.72 534.137 1505.28 536.493 1505.28 539.137V540.445C1505.28 543.089 1504.73 545.439 1503.64 547.496C1502.56 549.553 1501.03 551.148 1499.05 552.281C1497.07 553.414 1494.83 553.987 1492.35 554H1483.54ZM1489.4 530.309V549.293H1492.23C1494.52 549.293 1496.27 548.544 1497.48 547.047C1498.7 545.549 1499.31 543.408 1499.34 540.621V539.117C1499.34 536.227 1498.74 534.039 1497.54 532.555C1496.35 531.057 1494.59 530.309 1492.29 530.309H1489.4ZM1521.43 554C1521.17 553.492 1520.98 552.861 1520.86 552.105C1519.5 553.629 1517.72 554.391 1515.53 554.391C1513.46 554.391 1511.74 553.792 1510.38 552.594C1509.02 551.396 1508.34 549.885 1508.34 548.062C1508.34 545.823 1509.17 544.104 1510.82 542.906C1512.49 541.708 1514.89 541.103 1518.03 541.09H1520.63V539.879C1520.63 538.902 1520.38 538.121 1519.87 537.535C1519.37 536.949 1518.58 536.656 1517.5 536.656C1516.55 536.656 1515.8 536.884 1515.26 537.34C1514.72 537.796 1514.46 538.421 1514.46 539.215H1508.81C1508.81 537.991 1509.19 536.858 1509.95 535.816C1510.7 534.775 1511.77 533.961 1513.15 533.375C1514.53 532.776 1516.08 532.477 1517.8 532.477C1520.4 532.477 1522.46 533.134 1523.99 534.449C1525.52 535.751 1526.29 537.587 1526.29 539.957V549.117C1526.31 551.122 1526.59 552.639 1527.13 553.668V554H1521.43ZM1516.76 550.074C1517.6 550.074 1518.36 549.892 1519.07 549.527C1519.77 549.15 1520.29 548.648 1520.63 548.023V544.391H1518.52C1515.69 544.391 1514.19 545.367 1514.01 547.32L1513.99 547.652C1513.99 548.355 1514.24 548.935 1514.73 549.391C1515.23 549.846 1515.9 550.074 1516.76 550.074ZM1535.82 532.867L1536 535.309C1537.51 533.421 1539.54 532.477 1542.07 532.477C1544.31 532.477 1545.98 533.134 1547.07 534.449C1548.17 535.764 1548.73 537.73 1548.75 540.348V554H1543.11V540.484C1543.11 539.286 1542.85 538.421 1542.33 537.887C1541.81 537.34 1540.94 537.066 1539.73 537.066C1538.14 537.066 1536.95 537.743 1536.16 539.098V554H1530.51V532.867H1535.82ZM1561.84 549.84C1562.88 549.84 1563.73 549.553 1564.38 548.98C1565.03 548.408 1565.37 547.646 1565.39 546.695H1570.69C1570.67 548.128 1570.28 549.443 1569.52 550.641C1568.75 551.826 1567.69 552.75 1566.35 553.414C1565.02 554.065 1563.55 554.391 1561.94 554.391C1558.92 554.391 1556.53 553.434 1554.79 551.52C1553.04 549.592 1552.17 546.936 1552.17 543.551V543.18C1552.17 539.924 1553.04 537.327 1554.77 535.387C1556.5 533.447 1558.88 532.477 1561.9 532.477C1564.54 532.477 1566.66 533.232 1568.25 534.742C1569.85 536.24 1570.66 538.238 1570.69 540.738H1565.39C1565.37 539.645 1565.03 538.759 1564.38 538.082C1563.73 537.392 1562.87 537.047 1561.8 537.047C1560.49 537.047 1559.49 537.529 1558.81 538.492C1558.15 539.443 1557.82 540.992 1557.82 543.141V543.727C1557.82 545.901 1558.15 547.464 1558.81 548.414C1559.48 549.365 1560.49 549.84 1561.84 549.84ZM1583.64 554.391C1580.54 554.391 1578.01 553.44 1576.06 551.539C1574.12 549.638 1573.15 547.105 1573.15 543.941V543.395C1573.15 541.272 1573.56 539.378 1574.38 537.711C1575.2 536.031 1576.36 534.742 1577.86 533.844C1579.37 532.932 1581.08 532.477 1583.01 532.477C1585.9 532.477 1588.17 533.388 1589.83 535.211C1591.49 537.034 1592.33 539.618 1592.33 542.965V545.27H1578.87C1579.05 546.65 1579.6 547.757 1580.51 548.59C1581.44 549.423 1582.6 549.84 1584.01 549.84C1586.18 549.84 1587.88 549.052 1589.11 547.477L1591.88 550.582C1591.03 551.78 1589.89 552.717 1588.44 553.395C1587 554.059 1585.39 554.391 1583.64 554.391ZM1582.99 537.047C1581.87 537.047 1580.96 537.424 1580.26 538.18C1579.57 538.935 1579.12 540.016 1578.93 541.422H1586.78V540.973C1586.76 539.723 1586.42 538.759 1585.77 538.082C1585.11 537.392 1584.19 537.047 1582.99 537.047ZM1611.02 537.281H1614.03C1615.46 537.281 1616.52 536.923 1617.21 536.207C1617.9 535.491 1618.25 534.54 1618.25 533.355C1618.25 532.21 1617.9 531.318 1617.21 530.68C1616.53 530.042 1615.6 529.723 1614.4 529.723C1613.32 529.723 1612.41 530.022 1611.68 530.621C1610.95 531.207 1610.59 531.975 1610.59 532.926H1604.95C1604.95 531.441 1605.34 530.113 1606.14 528.941C1606.94 527.757 1608.06 526.832 1609.5 526.168C1610.94 525.504 1612.53 525.172 1614.26 525.172C1617.27 525.172 1619.63 525.895 1621.33 527.34C1623.04 528.772 1623.89 530.751 1623.89 533.277C1623.89 534.579 1623.49 535.777 1622.7 536.871C1621.9 537.965 1620.86 538.805 1619.57 539.391C1621.18 539.964 1622.37 540.823 1623.15 541.969C1623.94 543.115 1624.34 544.469 1624.34 546.031C1624.34 548.557 1623.42 550.582 1621.57 552.105C1619.73 553.629 1617.3 554.391 1614.26 554.391C1611.42 554.391 1609.1 553.642 1607.29 552.145C1605.49 550.647 1604.59 548.668 1604.59 546.207H1610.24C1610.24 547.275 1610.64 548.147 1611.43 548.824C1612.24 549.501 1613.23 549.84 1614.4 549.84C1615.74 549.84 1616.79 549.488 1617.54 548.785C1618.31 548.069 1618.7 547.125 1618.7 545.953C1618.7 543.115 1617.13 541.695 1614.01 541.695H1611.02V537.281Z" fill="black"/>
<path d="M1339.65 596.379H1328.4V608H1322.54V579.562H1341.05V584.309H1328.4V591.652H1339.65V596.379ZM1350.04 608H1344.38V586.867H1350.04V608ZM1344.04 581.398C1344.04 580.552 1344.32 579.855 1344.88 579.309C1345.46 578.762 1346.23 578.488 1347.21 578.488C1348.17 578.488 1348.94 578.762 1349.51 579.309C1350.08 579.855 1350.37 580.552 1350.37 581.398C1350.37 582.258 1350.08 582.961 1349.49 583.508C1348.92 584.055 1348.16 584.328 1347.21 584.328C1346.26 584.328 1345.49 584.055 1344.9 583.508C1344.33 582.961 1344.04 582.258 1344.04 581.398ZM1353.89 597.277C1353.89 594.035 1354.65 591.424 1356.19 589.445C1357.74 587.466 1359.82 586.477 1362.44 586.477C1364.76 586.477 1366.56 587.271 1367.85 588.859L1368.09 586.867H1373.2V607.297C1373.2 609.146 1372.78 610.754 1371.93 612.121C1371.1 613.488 1369.92 614.53 1368.4 615.246C1366.88 615.962 1365.09 616.32 1363.05 616.32C1361.5 616.32 1359.99 616.008 1358.52 615.383C1357.04 614.771 1355.93 613.977 1355.18 613L1357.68 609.562C1359.08 611.138 1360.79 611.926 1362.79 611.926C1364.29 611.926 1365.46 611.522 1366.29 610.715C1367.12 609.921 1367.54 608.788 1367.54 607.316V606.184C1366.24 607.655 1364.52 608.391 1362.4 608.391C1359.86 608.391 1357.81 607.401 1356.23 605.422C1354.67 603.43 1353.89 600.793 1353.89 597.512V597.277ZM1359.53 597.688C1359.53 599.602 1359.92 601.105 1360.68 602.199C1361.45 603.28 1362.51 603.82 1363.85 603.82C1365.57 603.82 1366.8 603.176 1367.54 601.887V593C1366.78 591.711 1365.57 591.066 1363.89 591.066C1362.53 591.066 1361.46 591.62 1360.68 592.727C1359.92 593.833 1359.53 595.487 1359.53 597.688ZM1383.07 589.172C1384.56 587.375 1386.45 586.477 1388.71 586.477C1393.29 586.477 1395.62 589.139 1395.68 594.465V608H1390.04V594.621C1390.04 593.41 1389.78 592.518 1389.26 591.945C1388.74 591.359 1387.87 591.066 1386.66 591.066C1385.01 591.066 1383.81 591.704 1383.07 592.98V608H1377.42V578H1383.07V589.172ZM1406.7 581.672V586.867H1410.31V591.008H1406.7V601.555C1406.7 602.336 1406.85 602.896 1407.15 603.234C1407.45 603.573 1408.02 603.742 1408.87 603.742C1409.49 603.742 1410.05 603.697 1410.53 603.605V607.883C1409.42 608.221 1408.28 608.391 1407.11 608.391C1403.15 608.391 1401.13 606.392 1401.05 602.395V591.008H1397.97V586.867H1401.05V581.672H1406.7ZM1419.41 608H1413.75V586.867H1419.41V608ZM1413.42 581.398C1413.42 580.552 1413.7 579.855 1414.26 579.309C1414.83 578.762 1415.61 578.488 1416.58 578.488C1417.55 578.488 1418.31 578.762 1418.89 579.309C1419.46 579.855 1419.75 580.552 1419.75 581.398C1419.75 582.258 1419.45 582.961 1418.87 583.508C1418.29 584.055 1417.53 584.328 1416.58 584.328C1415.63 584.328 1414.86 584.055 1414.28 583.508C1413.7 582.961 1413.42 582.258 1413.42 581.398ZM1429.28 586.867L1429.45 589.309C1430.96 587.421 1432.99 586.477 1435.53 586.477C1437.77 586.477 1439.43 587.134 1440.53 588.449C1441.62 589.764 1442.18 591.73 1442.21 594.348V608H1436.56V594.484C1436.56 593.286 1436.3 592.421 1435.78 591.887C1435.26 591.34 1434.39 591.066 1433.18 591.066C1431.6 591.066 1430.4 591.743 1429.61 593.098V608H1423.96V586.867H1429.28ZM1445.68 597.277C1445.68 594.035 1446.45 591.424 1447.99 589.445C1449.54 587.466 1451.62 586.477 1454.24 586.477C1456.56 586.477 1458.36 587.271 1459.65 588.859L1459.88 586.867H1465V607.297C1465 609.146 1464.58 610.754 1463.73 612.121C1462.9 613.488 1461.72 614.53 1460.2 615.246C1458.67 615.962 1456.89 616.32 1454.84 616.32C1453.29 616.32 1451.78 616.008 1450.31 615.383C1448.84 614.771 1447.73 613.977 1446.97 613L1449.47 609.562C1450.88 611.138 1452.58 611.926 1454.59 611.926C1456.09 611.926 1457.25 611.522 1458.09 610.715C1458.92 609.921 1459.34 608.788 1459.34 607.316V606.184C1458.03 607.655 1456.32 608.391 1454.2 608.391C1451.66 608.391 1449.6 607.401 1448.03 605.422C1446.46 603.43 1445.68 600.793 1445.68 597.512V597.277ZM1451.33 597.688C1451.33 599.602 1451.71 601.105 1452.48 602.199C1453.25 603.28 1454.3 603.82 1455.64 603.82C1457.36 603.82 1458.59 603.176 1459.34 601.887V593C1458.58 591.711 1457.36 591.066 1455.68 591.066C1454.33 591.066 1453.26 591.62 1452.48 592.727C1451.71 593.833 1451.33 595.487 1451.33 597.688Z" fill="black"/>
<path d="M1240.29 649.539C1240.29 648.432 1239.89 647.586 1239.11 647C1238.33 646.401 1236.93 645.776 1234.89 645.125C1232.86 644.461 1231.26 643.81 1230.07 643.172C1226.84 641.427 1225.23 639.077 1225.23 636.121C1225.23 634.585 1225.66 633.217 1226.52 632.02C1227.39 630.809 1228.63 629.865 1230.25 629.188C1231.87 628.51 1233.7 628.172 1235.71 628.172C1237.75 628.172 1239.56 628.543 1241.14 629.285C1242.73 630.014 1243.96 631.049 1244.84 632.391C1245.72 633.732 1246.16 635.255 1246.16 636.961H1240.3C1240.3 635.659 1239.89 634.65 1239.07 633.934C1238.25 633.204 1237.1 632.84 1235.62 632.84C1234.18 632.84 1233.07 633.146 1232.28 633.758C1231.48 634.357 1231.09 635.151 1231.09 636.141C1231.09 637.065 1231.55 637.84 1232.47 638.465C1233.41 639.09 1234.78 639.676 1236.59 640.223C1239.93 641.225 1242.36 642.469 1243.88 643.953C1245.4 645.438 1246.16 647.286 1246.16 649.5C1246.16 651.961 1245.23 653.895 1243.37 655.301C1241.51 656.694 1239 657.391 1235.85 657.391C1233.66 657.391 1231.67 656.993 1229.88 656.199C1228.08 655.392 1226.7 654.292 1225.75 652.898C1224.82 651.505 1224.35 649.891 1224.35 648.055H1230.23C1230.23 651.193 1232.1 652.762 1235.85 652.762C1237.24 652.762 1238.33 652.482 1239.11 651.922C1239.89 651.349 1240.29 650.555 1240.29 649.539ZM1262.02 657C1261.76 656.492 1261.57 655.861 1261.46 655.105C1260.09 656.629 1258.31 657.391 1256.12 657.391C1254.05 657.391 1252.34 656.792 1250.97 655.594C1249.61 654.396 1248.94 652.885 1248.94 651.062C1248.94 648.823 1249.76 647.104 1251.42 645.906C1253.08 644.708 1255.49 644.103 1258.62 644.09H1261.22V642.879C1261.22 641.902 1260.97 641.121 1260.46 640.535C1259.97 639.949 1259.18 639.656 1258.1 639.656C1257.15 639.656 1256.4 639.884 1255.85 640.34C1255.32 640.796 1255.05 641.421 1255.05 642.215H1249.41C1249.41 640.991 1249.78 639.858 1250.54 638.816C1251.29 637.775 1252.36 636.961 1253.74 636.375C1255.12 635.776 1256.67 635.477 1258.39 635.477C1260.99 635.477 1263.06 636.134 1264.58 637.449C1266.12 638.751 1266.89 640.587 1266.89 642.957V652.117C1266.9 654.122 1267.18 655.639 1267.73 656.668V657H1262.02ZM1257.36 653.074C1258.19 653.074 1258.96 652.892 1259.66 652.527C1260.36 652.15 1260.88 651.648 1261.22 651.023V647.391H1259.11C1256.29 647.391 1254.78 648.367 1254.6 650.32L1254.58 650.652C1254.58 651.355 1254.83 651.935 1255.32 652.391C1255.82 652.846 1256.5 653.074 1257.36 653.074ZM1278.8 649.012L1282.71 635.867H1288.76L1280.27 660.281L1279.8 661.395C1278.53 664.155 1276.45 665.535 1273.55 665.535C1272.73 665.535 1271.89 665.411 1271.05 665.164V660.887L1271.91 660.906C1272.97 660.906 1273.77 660.743 1274.29 660.418C1274.82 660.092 1275.24 659.552 1275.54 658.797L1276.2 657.059L1268.8 635.867H1274.88L1278.8 649.012ZM1324.46 657H1318.61V644.812H1307.18V657H1301.32V628.562H1307.18V640.086H1318.61V628.562H1324.46V657ZM1335.19 657H1329.52V635.867H1335.19V657ZM1329.19 630.398C1329.19 629.552 1329.47 628.855 1330.03 628.309C1330.6 627.762 1331.38 627.488 1332.36 627.488C1333.32 627.488 1334.09 627.762 1334.66 628.309C1335.23 628.855 1335.52 629.552 1335.52 630.398C1335.52 631.258 1335.23 631.961 1334.64 632.508C1334.07 633.055 1333.31 633.328 1332.36 633.328C1331.4 633.328 1330.64 633.055 1330.05 632.508C1329.48 631.961 1329.19 631.258 1329.19 630.398Z" fill="black"/>
<path d="M1225.54 37V8.5625H1234.29C1236.79 8.5625 1239.02 9.12891 1240.99 10.2617C1242.97 11.3815 1244.51 12.9831 1245.62 15.0664C1246.72 17.1367 1247.28 19.4935 1247.28 22.1367V23.4453C1247.28 26.0885 1246.73 28.4388 1245.64 30.4961C1244.56 32.5534 1243.03 34.1484 1241.05 35.2812C1239.07 36.4141 1236.83 36.987 1234.35 37H1225.54ZM1231.4 13.3086V32.293H1234.23C1236.52 32.293 1238.27 31.5443 1239.48 30.0469C1240.7 28.5495 1241.31 26.4076 1241.34 23.6211V22.1172C1241.34 19.2266 1240.74 17.0391 1239.54 15.5547C1238.35 14.0573 1236.59 13.3086 1234.29 13.3086H1231.4ZM1263.43 37C1263.17 36.4922 1262.98 35.8607 1262.86 35.1055C1261.5 36.6289 1259.72 37.3906 1257.53 37.3906C1255.46 37.3906 1253.74 36.7917 1252.38 35.5938C1251.02 34.3958 1250.34 32.8854 1250.34 31.0625C1250.34 28.8229 1251.17 27.1042 1252.82 25.9062C1254.49 24.7083 1256.89 24.1029 1260.03 24.0898H1262.63V22.8789C1262.63 21.9023 1262.38 21.1211 1261.87 20.5352C1261.37 19.9492 1260.58 19.6562 1259.5 19.6562C1258.55 19.6562 1257.8 19.8841 1257.26 20.3398C1256.72 20.7956 1256.46 21.4206 1256.46 22.2148H1250.81C1250.81 20.9909 1251.19 19.8581 1251.95 18.8164C1252.7 17.7747 1253.77 16.9609 1255.15 16.375C1256.53 15.776 1258.08 15.4766 1259.8 15.4766C1262.4 15.4766 1264.46 16.1341 1265.99 17.4492C1267.52 18.7513 1268.29 20.5872 1268.29 22.957V32.1172C1268.31 34.1224 1268.59 35.6393 1269.13 36.668V37H1263.43ZM1258.76 33.0742C1259.6 33.0742 1260.36 32.8919 1261.07 32.5273C1261.77 32.1497 1262.29 31.6484 1262.63 31.0234V27.3906H1260.52C1257.69 27.3906 1256.19 28.3672 1256.01 30.3203L1255.99 30.6523C1255.99 31.3555 1256.24 31.9349 1256.73 32.3906C1257.23 32.8464 1257.9 33.0742 1258.76 33.0742ZM1277.82 15.8672L1278 18.3086C1279.51 16.4206 1281.54 15.4766 1284.07 15.4766C1286.31 15.4766 1287.98 16.1341 1289.07 17.4492C1290.17 18.7643 1290.73 20.7305 1290.75 23.3477V37H1285.11V23.4844C1285.11 22.2865 1284.85 21.4206 1284.33 20.8867C1283.81 20.3398 1282.94 20.0664 1281.73 20.0664C1280.14 20.0664 1278.95 20.7435 1278.16 22.0977V37H1272.51V15.8672H1277.82ZM1303.84 32.8398C1304.88 32.8398 1305.73 32.5534 1306.38 31.9805C1307.03 31.4076 1307.37 30.6458 1307.39 29.6953H1312.69C1312.67 31.1276 1312.28 32.4427 1311.52 33.6406C1310.75 34.8255 1309.69 35.75 1308.35 36.4141C1307.02 37.0651 1305.55 37.3906 1303.94 37.3906C1300.92 37.3906 1298.53 36.4336 1296.79 34.5195C1295.04 32.5924 1294.17 29.9362 1294.17 26.5508V26.1797C1294.17 22.9245 1295.04 20.3268 1296.77 18.3867C1298.5 16.4466 1300.88 15.4766 1303.9 15.4766C1306.54 15.4766 1308.66 16.2318 1310.25 17.7422C1311.85 19.2396 1312.66 21.2383 1312.69 23.7383H1307.39C1307.37 22.6445 1307.03 21.7591 1306.38 21.082C1305.73 20.3919 1304.87 20.0469 1303.8 20.0469C1302.49 20.0469 1301.49 20.5286 1300.81 21.4922C1300.15 22.4427 1299.82 23.9922 1299.82 26.1406V26.7266C1299.82 28.901 1300.15 30.4635 1300.81 31.4141C1301.48 32.3646 1302.49 32.8398 1303.84 32.8398ZM1325.64 37.3906C1322.54 37.3906 1320.01 36.4401 1318.06 34.5391C1316.12 32.638 1315.15 30.1055 1315.15 26.9414V26.3945C1315.15 24.2721 1315.56 22.3776 1316.38 20.7109C1317.2 19.0312 1318.36 17.7422 1319.86 16.8438C1321.37 15.9323 1323.08 15.4766 1325.01 15.4766C1327.9 15.4766 1330.17 16.388 1331.83 18.2109C1333.49 20.0339 1334.33 22.6185 1334.33 25.9648V28.2695H1320.87C1321.05 29.6497 1321.6 30.7565 1322.51 31.5898C1323.44 32.4232 1324.6 32.8398 1326.01 32.8398C1328.18 32.8398 1329.88 32.0521 1331.11 30.4766L1333.88 33.582C1333.03 34.7799 1331.89 35.7174 1330.44 36.3945C1329 37.0586 1327.39 37.3906 1325.64 37.3906ZM1324.99 20.0469C1323.87 20.0469 1322.96 20.4245 1322.26 21.1797C1321.57 21.9349 1321.12 23.0156 1320.93 24.4219H1328.78V23.9727C1328.76 22.7227 1328.42 21.7591 1327.77 21.082C1327.11 20.3919 1326.19 20.0469 1324.99 20.0469ZM1360.99 37H1355.34V15.2422L1348.61 17.332V12.7422L1360.38 8.52344H1360.99V37Z" fill="black"/>
<path d="M174.945 79.3086H166.234V103H160.375V79.3086H151.781V74.5625H174.945V79.3086ZM189.301 100.852C187.908 102.544 185.98 103.391 183.52 103.391C181.254 103.391 179.522 102.74 178.324 101.438C177.139 100.135 176.534 98.2279 176.508 95.7148V81.8672H182.152V95.5195C182.152 97.7201 183.155 98.8203 185.16 98.8203C187.074 98.8203 188.389 98.1562 189.105 96.8281V81.8672H194.77V103H189.457L189.301 100.852ZM210.902 87.1602C210.134 87.056 209.457 87.0039 208.871 87.0039C206.736 87.0039 205.336 87.7266 204.672 89.1719V103H199.027V81.8672H204.359L204.516 84.3867C205.648 82.4466 207.217 81.4766 209.223 81.4766C209.848 81.4766 210.434 81.5612 210.98 81.7305L210.902 87.1602ZM218.832 81.8672L219.008 84.3086C220.518 82.4206 222.543 81.4766 225.082 81.4766C227.322 81.4766 228.988 82.1341 230.082 83.4492C231.176 84.7643 231.736 86.7305 231.762 89.3477V103H226.117V89.4844C226.117 88.2865 225.857 87.4206 225.336 86.8867C224.815 86.3398 223.949 86.0664 222.738 86.0664C221.15 86.0664 219.958 86.7435 219.164 88.0977V103H213.52V81.8672H218.832ZM252.25 98.293H264.691V103H246.391V74.5625H252.25V98.293ZM277.426 103.391C274.327 103.391 271.801 102.44 269.848 100.539C267.908 98.638 266.938 96.1055 266.938 92.9414V92.3945C266.938 90.2721 267.348 88.3776 268.168 86.7109C268.988 85.0312 270.147 83.7422 271.645 82.8438C273.155 81.9323 274.874 81.4766 276.801 81.4766C279.691 81.4766 281.964 82.388 283.617 84.2109C285.284 86.0339 286.117 88.6185 286.117 91.9648V94.2695H272.66C272.842 95.6497 273.389 96.7565 274.301 97.5898C275.225 98.4232 276.391 98.8398 277.797 98.8398C279.971 98.8398 281.671 98.0521 282.895 96.4766L285.668 99.582C284.822 100.78 283.676 101.717 282.23 102.395C280.785 103.059 279.184 103.391 277.426 103.391ZM276.781 86.0469C275.661 86.0469 274.75 86.4245 274.047 87.1797C273.357 87.9349 272.914 89.0156 272.719 90.4219H280.57V89.9727C280.544 88.7227 280.206 87.7591 279.555 87.082C278.904 86.3919 277.979 86.0469 276.781 86.0469ZM290.883 103V86.0078H287.738V81.8672H290.883V80.0703C290.883 77.7005 291.56 75.8646 292.914 74.5625C294.281 73.2474 296.189 72.5898 298.637 72.5898C299.418 72.5898 300.375 72.7201 301.508 72.9805L301.449 77.3555C300.98 77.2383 300.408 77.1797 299.73 77.1797C297.608 77.1797 296.547 78.1758 296.547 80.168V81.8672H300.746V86.0078H296.547V103H290.883ZM310.434 76.6719V81.8672H314.047V86.0078H310.434V96.5547C310.434 97.3359 310.583 97.8958 310.883 98.2344C311.182 98.5729 311.755 98.7422 312.602 98.7422C313.227 98.7422 313.78 98.6966 314.262 98.6055V102.883C313.155 103.221 312.016 103.391 310.844 103.391C306.885 103.391 304.867 101.392 304.789 97.3945V86.0078H301.703V81.8672H304.789V76.6719H310.434Z" fill="black"/>
<path d="M125.648 377.379H114.398V389H108.539V360.562H127.055V365.309H114.398V372.652H125.648V377.379ZM128.773 378.238C128.773 376.142 129.177 374.273 129.984 372.633C130.792 370.992 131.951 369.723 133.461 368.824C134.984 367.926 136.749 367.477 138.754 367.477C141.605 367.477 143.93 368.349 145.727 370.094C147.536 371.839 148.546 374.208 148.754 377.203L148.793 378.648C148.793 381.891 147.888 384.495 146.078 386.461C144.268 388.414 141.84 389.391 138.793 389.391C135.746 389.391 133.311 388.414 131.488 386.461C129.678 384.508 128.773 381.852 128.773 378.492V378.238ZM134.418 378.648C134.418 380.654 134.796 382.19 135.551 383.258C136.306 384.312 137.387 384.84 138.793 384.84C140.16 384.84 141.228 384.319 141.996 383.277C142.764 382.223 143.148 380.543 143.148 378.238C143.148 376.272 142.764 374.749 141.996 373.668C141.228 372.587 140.147 372.047 138.754 372.047C137.374 372.047 136.306 372.587 135.551 373.668C134.796 374.736 134.418 376.396 134.418 378.648ZM164.145 373.16C163.376 373.056 162.699 373.004 162.113 373.004C159.978 373.004 158.578 373.727 157.914 375.172V389H152.27V367.867H157.602L157.758 370.387C158.891 368.447 160.46 367.477 162.465 367.477C163.09 367.477 163.676 367.561 164.223 367.73L164.145 373.16ZM185.609 381.324L188.383 367.867H193.832L188.441 389H183.715L179.711 375.699L175.707 389H171L165.609 367.867H171.059L173.812 381.305L177.68 367.867H181.762L185.609 381.324ZM208.891 389C208.63 388.492 208.441 387.861 208.324 387.105C206.957 388.629 205.18 389.391 202.992 389.391C200.922 389.391 199.203 388.792 197.836 387.594C196.482 386.396 195.805 384.885 195.805 383.062C195.805 380.823 196.632 379.104 198.285 377.906C199.952 376.708 202.354 376.103 205.492 376.09H208.09V374.879C208.09 373.902 207.836 373.121 207.328 372.535C206.833 371.949 206.046 371.656 204.965 371.656C204.014 371.656 203.266 371.884 202.719 372.34C202.185 372.796 201.918 373.421 201.918 374.215H196.273C196.273 372.991 196.651 371.858 197.406 370.816C198.161 369.775 199.229 368.961 200.609 368.375C201.99 367.776 203.539 367.477 205.258 367.477C207.862 367.477 209.926 368.134 211.449 369.449C212.986 370.751 213.754 372.587 213.754 374.957V384.117C213.767 386.122 214.047 387.639 214.594 388.668V389H208.891ZM204.223 385.074C205.056 385.074 205.824 384.892 206.527 384.527C207.23 384.15 207.751 383.648 208.09 383.023V379.391H205.98C203.155 379.391 201.651 380.367 201.469 382.32L201.449 382.652C201.449 383.355 201.697 383.935 202.191 384.391C202.686 384.846 203.363 385.074 204.223 385.074ZM229.965 373.16C229.197 373.056 228.52 373.004 227.934 373.004C225.798 373.004 224.398 373.727 223.734 375.172V389H218.09V367.867H223.422L223.578 370.387C224.711 368.447 226.28 367.477 228.285 367.477C228.91 367.477 229.496 367.561 230.043 367.73L229.965 373.16ZM231.43 378.277C231.43 374.983 232.165 372.359 233.637 370.406C235.121 368.453 237.146 367.477 239.711 367.477C241.768 367.477 243.467 368.245 244.809 369.781V359H250.473V389H245.375L245.102 386.754C243.695 388.512 241.885 389.391 239.672 389.391C237.185 389.391 235.186 388.414 233.676 386.461C232.178 384.495 231.43 381.767 231.43 378.277ZM237.074 378.688C237.074 380.667 237.419 382.184 238.109 383.238C238.799 384.293 239.802 384.82 241.117 384.82C242.862 384.82 244.092 384.085 244.809 382.613V374.273C244.105 372.802 242.888 372.066 241.156 372.066C238.435 372.066 237.074 374.273 237.074 378.688Z" fill="black"/>
<path d="M31.3984 446.293H43.8398V451H25.5391V422.562H31.3984V446.293ZM56.5742 451.391C53.4753 451.391 50.9492 450.44 48.9961 448.539C47.056 446.638 46.0859 444.105 46.0859 440.941V440.395C46.0859 438.272 46.4961 436.378 47.3164 434.711C48.1367 433.031 49.2956 431.742 50.793 430.844C52.3034 429.932 54.0221 429.477 55.9492 429.477C58.8398 429.477 61.112 430.388 62.7656 432.211C64.4323 434.034 65.2656 436.618 65.2656 439.965V442.27H51.8086C51.9909 443.65 52.5378 444.757 53.4492 445.59C54.3737 446.423 55.5391 446.84 56.9453 446.84C59.1198 446.84 60.819 446.052 62.043 444.477L64.8164 447.582C63.9701 448.78 62.8242 449.717 61.3789 450.395C59.9336 451.059 58.332 451.391 56.5742 451.391ZM55.9297 434.047C54.8099 434.047 53.8984 434.424 53.1953 435.18C52.5052 435.935 52.0625 437.016 51.8672 438.422H59.7188V437.973C59.6927 436.723 59.3542 435.759 58.7031 435.082C58.0521 434.392 57.1276 434.047 55.9297 434.047ZM70.0312 451V434.008H66.8867V429.867H70.0312V428.07C70.0312 425.701 70.7083 423.865 72.0625 422.562C73.4297 421.247 75.3372 420.59 77.7852 420.59C78.5664 420.59 79.5234 420.72 80.6562 420.98L80.5977 425.355C80.1289 425.238 79.556 425.18 78.8789 425.18C76.7565 425.18 75.6953 426.176 75.6953 428.168V429.867H79.8945V434.008H75.6953V451H70.0312ZM89.582 424.672V429.867H93.1953V434.008H89.582V444.555C89.582 445.336 89.7318 445.896 90.0312 446.234C90.3307 446.573 90.9036 446.742 91.75 446.742C92.375 446.742 92.9284 446.697 93.4102 446.605V450.883C92.3034 451.221 91.1641 451.391 89.9922 451.391C86.0339 451.391 84.0156 449.392 83.9375 445.395V434.008H80.8516V429.867H83.9375V424.672H89.582ZM121.418 443.539C121.418 442.432 121.027 441.586 120.246 441C119.465 440.401 118.059 439.776 116.027 439.125C113.996 438.461 112.388 437.81 111.203 437.172C107.974 435.427 106.359 433.077 106.359 430.121C106.359 428.585 106.789 427.217 107.648 426.02C108.521 424.809 109.764 423.865 111.379 423.188C113.007 422.51 114.829 422.172 116.848 422.172C118.879 422.172 120.689 422.543 122.277 423.285C123.866 424.014 125.096 425.049 125.969 426.391C126.854 427.732 127.297 429.255 127.297 430.961H121.438C121.438 429.659 121.027 428.65 120.207 427.934C119.387 427.204 118.234 426.84 116.75 426.84C115.318 426.84 114.204 427.146 113.41 427.758C112.616 428.357 112.219 429.151 112.219 430.141C112.219 431.065 112.681 431.84 113.605 432.465C114.543 433.09 115.917 433.676 117.727 434.223C121.06 435.225 123.488 436.469 125.012 437.953C126.535 439.438 127.297 441.286 127.297 443.5C127.297 445.961 126.366 447.895 124.504 449.301C122.642 450.694 120.135 451.391 116.984 451.391C114.797 451.391 112.805 450.993 111.008 450.199C109.211 449.392 107.837 448.292 106.887 446.898C105.949 445.505 105.48 443.891 105.48 442.055H111.359C111.359 445.193 113.234 446.762 116.984 446.762C118.378 446.762 119.465 446.482 120.246 445.922C121.027 445.349 121.418 444.555 121.418 443.539ZM136.418 432.172C137.915 430.375 139.797 429.477 142.062 429.477C146.646 429.477 148.97 432.139 149.035 437.465V451H143.391V437.621C143.391 436.41 143.13 435.518 142.609 434.945C142.089 434.359 141.223 434.066 140.012 434.066C138.358 434.066 137.16 434.704 136.418 435.98V451H130.773V421H136.418V432.172ZM159.25 451H153.586V429.867H159.25V451ZM153.254 424.398C153.254 423.552 153.534 422.855 154.094 422.309C154.667 421.762 155.441 421.488 156.418 421.488C157.382 421.488 158.15 421.762 158.723 422.309C159.296 422.855 159.582 423.552 159.582 424.398C159.582 425.258 159.289 425.961 158.703 426.508C158.13 427.055 157.368 427.328 156.418 427.328C155.467 427.328 154.699 427.055 154.113 426.508C153.54 425.961 153.254 425.258 153.254 424.398ZM165.461 451V434.008H162.316V429.867H165.461V428.07C165.461 425.701 166.138 423.865 167.492 422.562C168.859 421.247 170.767 420.59 173.215 420.59C173.996 420.59 174.953 420.72 176.086 420.98L176.027 425.355C175.559 425.238 174.986 425.18 174.309 425.18C172.186 425.18 171.125 426.176 171.125 428.168V429.867H175.324V434.008H171.125V451H165.461ZM185.012 424.672V429.867H188.625V434.008H185.012V444.555C185.012 445.336 185.161 445.896 185.461 446.234C185.76 446.573 186.333 446.742 187.18 446.742C187.805 446.742 188.358 446.697 188.84 446.605V450.883C187.733 451.221 186.594 451.391 185.422 451.391C181.464 451.391 179.445 449.392 179.367 445.395V434.008H176.281V429.867H179.367V424.672H185.012Z" fill="black"/>
<path d="M13.0664 560.59H8.39844V571H2.53906V542.562H13.1055C16.4648 542.562 19.056 543.311 20.8789 544.809C22.7018 546.306 23.6133 548.422 23.6133 551.156C23.6133 553.096 23.1901 554.717 22.3438 556.02C21.5104 557.309 20.2409 558.337 18.5352 559.105L24.6875 570.727V571H18.3984L13.0664 560.59ZM8.39844 555.844H13.125C14.5964 555.844 15.7357 555.473 16.543 554.73C17.3503 553.975 17.7539 552.94 17.7539 551.625C17.7539 550.284 17.3698 549.229 16.6016 548.461C15.8464 547.693 14.681 547.309 13.1055 547.309H8.39844V555.844ZM33.6719 571H28.0078V549.867H33.6719V571ZM27.6758 544.398C27.6758 543.552 27.9557 542.855 28.5156 542.309C29.0885 541.762 29.8633 541.488 30.8398 541.488C31.8034 541.488 32.5716 541.762 33.1445 542.309C33.7174 542.855 34.0039 543.552 34.0039 544.398C34.0039 545.258 33.7109 545.961 33.125 546.508C32.5521 547.055 31.7904 547.328 30.8398 547.328C29.8893 547.328 29.1211 547.055 28.5352 546.508C27.9622 545.961 27.6758 545.258 27.6758 544.398ZM37.5195 560.277C37.5195 557.035 38.2878 554.424 39.8242 552.445C41.3737 550.466 43.457 549.477 46.0742 549.477C48.3919 549.477 50.1953 550.271 51.4844 551.859L51.7188 549.867H56.8359V570.297C56.8359 572.146 56.4128 573.754 55.5664 575.121C54.7331 576.488 53.5547 577.53 52.0312 578.246C50.5078 578.962 48.724 579.32 46.6797 579.32C45.1302 579.32 43.6198 579.008 42.1484 578.383C40.6771 577.771 39.5638 576.977 38.8086 576L41.3086 572.562C42.7148 574.138 44.4206 574.926 46.4258 574.926C47.9232 574.926 49.0885 574.522 49.9219 573.715C50.7552 572.921 51.1719 571.788 51.1719 570.316V569.184C49.8698 570.655 48.1576 571.391 46.0352 571.391C43.4961 571.391 41.4388 570.401 39.8633 568.422C38.3008 566.43 37.5195 563.793 37.5195 560.512V560.277ZM43.1641 560.688C43.1641 562.602 43.5482 564.105 44.3164 565.199C45.0846 566.28 46.1393 566.82 47.4805 566.82C49.1992 566.82 50.4297 566.176 51.1719 564.887V556C50.4167 554.711 49.1992 554.066 47.5195 554.066C46.1654 554.066 45.0977 554.62 44.3164 555.727C43.5482 556.833 43.1641 558.487 43.1641 560.688ZM66.6992 552.172C68.1966 550.375 70.0781 549.477 72.3438 549.477C76.9271 549.477 79.2513 552.139 79.3164 557.465V571H73.6719V557.621C73.6719 556.41 73.4115 555.518 72.8906 554.945C72.3698 554.359 71.5039 554.066 70.293 554.066C68.6393 554.066 67.4414 554.704 66.6992 555.98V571H61.0547V541H66.6992V552.172ZM90.332 544.672V549.867H93.9453V554.008H90.332V564.555C90.332 565.336 90.4818 565.896 90.7812 566.234C91.0807 566.573 91.6536 566.742 92.5 566.742C93.125 566.742 93.6784 566.697 94.1602 566.605V570.883C93.0534 571.221 91.9141 571.391 90.7422 571.391C86.7839 571.391 84.7656 569.392 84.6875 565.395V554.008H81.6016V549.867H84.6875V544.672H90.332ZM122.168 563.539C122.168 562.432 121.777 561.586 120.996 561C120.215 560.401 118.809 559.776 116.777 559.125C114.746 558.461 113.138 557.81 111.953 557.172C108.724 555.427 107.109 553.077 107.109 550.121C107.109 548.585 107.539 547.217 108.398 546.02C109.271 544.809 110.514 543.865 112.129 543.188C113.757 542.51 115.579 542.172 117.598 542.172C119.629 542.172 121.439 542.543 123.027 543.285C124.616 544.014 125.846 545.049 126.719 546.391C127.604 547.732 128.047 549.255 128.047 550.961H122.188C122.188 549.659 121.777 548.65 120.957 547.934C120.137 547.204 118.984 546.84 117.5 546.84C116.068 546.84 114.954 547.146 114.16 547.758C113.366 548.357 112.969 549.151 112.969 550.141C112.969 551.065 113.431 551.84 114.355 552.465C115.293 553.09 116.667 553.676 118.477 554.223C121.81 555.225 124.238 556.469 125.762 557.953C127.285 559.438 128.047 561.286 128.047 563.5C128.047 565.961 127.116 567.895 125.254 569.301C123.392 570.694 120.885 571.391 117.734 571.391C115.547 571.391 113.555 570.993 111.758 570.199C109.961 569.392 108.587 568.292 107.637 566.898C106.699 565.505 106.23 563.891 106.23 562.055H112.109C112.109 565.193 113.984 566.762 117.734 566.762C119.128 566.762 120.215 566.482 120.996 565.922C121.777 565.349 122.168 564.555 122.168 563.539ZM137.168 552.172C138.665 550.375 140.547 549.477 142.812 549.477C147.396 549.477 149.72 552.139 149.785 557.465V571H144.141V557.621C144.141 556.41 143.88 555.518 143.359 554.945C142.839 554.359 141.973 554.066 140.762 554.066C139.108 554.066 137.91 554.704 137.168 555.98V571H131.523V541H137.168V552.172ZM160 571H154.336V549.867H160V571ZM154.004 544.398C154.004 543.552 154.284 542.855 154.844 542.309C155.417 541.762 156.191 541.488 157.168 541.488C158.132 541.488 158.9 541.762 159.473 542.309C160.046 542.855 160.332 543.552 160.332 544.398C160.332 545.258 160.039 545.961 159.453 546.508C158.88 547.055 158.118 547.328 157.168 547.328C156.217 547.328 155.449 547.055 154.863 546.508C154.29 545.961 154.004 545.258 154.004 544.398ZM166.211 571V554.008H163.066V549.867H166.211V548.07C166.211 545.701 166.888 543.865 168.242 542.562C169.609 541.247 171.517 540.59 173.965 540.59C174.746 540.59 175.703 540.72 176.836 540.98L176.777 545.355C176.309 545.238 175.736 545.18 175.059 545.18C172.936 545.18 171.875 546.176 171.875 548.168V549.867H176.074V554.008H171.875V571H166.211ZM185.762 544.672V549.867H189.375V554.008H185.762V564.555C185.762 565.336 185.911 565.896 186.211 566.234C186.51 566.573 187.083 566.742 187.93 566.742C188.555 566.742 189.108 566.697 189.59 566.605V570.883C188.483 571.221 187.344 571.391 186.172 571.391C182.214 571.391 180.195 569.392 180.117 565.395V554.008H177.031V549.867H180.117V544.672H185.762Z" fill="black"/>
<path d="M78.5391 513V484.562H88.5C91.9505 484.562 94.5677 485.227 96.3516 486.555C98.1354 487.87 99.0273 489.803 99.0273 492.355C99.0273 493.749 98.6693 494.979 97.9531 496.047C97.237 497.102 96.2409 497.876 94.9648 498.371C96.4232 498.736 97.569 499.471 98.4023 500.578C99.2487 501.685 99.6719 503.039 99.6719 504.641C99.6719 507.375 98.7995 509.445 97.0547 510.852C95.3099 512.258 92.8229 512.974 89.5938 513H78.5391ZM84.3984 500.617V508.293H89.418C90.7982 508.293 91.8724 507.967 92.6406 507.316C93.4219 506.652 93.8125 505.741 93.8125 504.582C93.8125 501.978 92.4648 500.656 89.7695 500.617H84.3984ZM84.3984 496.477H88.7344C91.6901 496.424 93.168 495.246 93.168 492.941C93.168 491.652 92.7904 490.728 92.0352 490.168C91.293 489.595 90.1146 489.309 88.5 489.309H84.3984V496.477ZM115.961 513C115.701 512.492 115.512 511.861 115.395 511.105C114.027 512.629 112.25 513.391 110.062 513.391C107.992 513.391 106.273 512.792 104.906 511.594C103.552 510.396 102.875 508.885 102.875 507.062C102.875 504.823 103.702 503.104 105.355 501.906C107.022 500.708 109.424 500.103 112.562 500.09H115.16V498.879C115.16 497.902 114.906 497.121 114.398 496.535C113.904 495.949 113.116 495.656 112.035 495.656C111.085 495.656 110.336 495.884 109.789 496.34C109.255 496.796 108.988 497.421 108.988 498.215H103.344C103.344 496.991 103.721 495.858 104.477 494.816C105.232 493.775 106.299 492.961 107.68 492.375C109.06 491.776 110.609 491.477 112.328 491.477C114.932 491.477 116.996 492.134 118.52 493.449C120.056 494.751 120.824 496.587 120.824 498.957V508.117C120.837 510.122 121.117 511.639 121.664 512.668V513H115.961ZM111.293 509.074C112.126 509.074 112.895 508.892 113.598 508.527C114.301 508.15 114.822 507.648 115.16 507.023V503.391H113.051C110.225 503.391 108.721 504.367 108.539 506.32L108.52 506.652C108.52 507.355 108.767 507.935 109.262 508.391C109.757 508.846 110.434 509.074 111.293 509.074ZM133.949 508.84C134.991 508.84 135.837 508.553 136.488 507.98C137.139 507.408 137.478 506.646 137.504 505.695H142.797C142.784 507.128 142.393 508.443 141.625 509.641C140.857 510.826 139.802 511.75 138.461 512.414C137.133 513.065 135.661 513.391 134.047 513.391C131.026 513.391 128.643 512.434 126.898 510.52C125.154 508.592 124.281 505.936 124.281 502.551V502.18C124.281 498.924 125.147 496.327 126.879 494.387C128.611 492.447 130.987 491.477 134.008 491.477C136.651 491.477 138.767 492.232 140.355 493.742C141.957 495.24 142.771 497.238 142.797 499.738H137.504C137.478 498.645 137.139 497.759 136.488 497.082C135.837 496.392 134.978 496.047 133.91 496.047C132.595 496.047 131.599 496.529 130.922 497.492C130.258 498.443 129.926 499.992 129.926 502.141V502.727C129.926 504.901 130.258 506.464 130.922 507.414C131.586 508.365 132.595 508.84 133.949 508.84ZM153.695 504.523L151.664 506.555V513H146.02V483H151.664V499.621L152.758 498.215L158.168 491.867H164.945L157.309 500.676L165.609 513H159.125L153.695 504.523ZM185.766 505.324L188.539 491.867H193.988L188.598 513H183.871L179.867 499.699L175.863 513H171.156L165.766 491.867H171.215L173.969 505.305L177.836 491.867H181.918L185.766 505.324ZM209.047 513C208.786 512.492 208.598 511.861 208.48 511.105C207.113 512.629 205.336 513.391 203.148 513.391C201.078 513.391 199.359 512.792 197.992 511.594C196.638 510.396 195.961 508.885 195.961 507.062C195.961 504.823 196.788 503.104 198.441 501.906C200.108 500.708 202.51 500.103 205.648 500.09H208.246V498.879C208.246 497.902 207.992 497.121 207.484 496.535C206.99 495.949 206.202 495.656 205.121 495.656C204.171 495.656 203.422 495.884 202.875 496.34C202.341 496.796 202.074 497.421 202.074 498.215H196.43C196.43 496.991 196.807 495.858 197.562 494.816C198.318 493.775 199.385 492.961 200.766 492.375C202.146 491.776 203.695 491.477 205.414 491.477C208.018 491.477 210.082 492.134 211.605 493.449C213.142 494.751 213.91 496.587 213.91 498.957V508.117C213.923 510.122 214.203 511.639 214.75 512.668V513H209.047ZM204.379 509.074C205.212 509.074 205.98 508.892 206.684 508.527C207.387 508.15 207.908 507.648 208.246 507.023V503.391H206.137C203.311 503.391 201.807 504.367 201.625 506.32L201.605 506.652C201.605 507.355 201.853 507.935 202.348 508.391C202.842 508.846 203.52 509.074 204.379 509.074ZM230.121 497.16C229.353 497.056 228.676 497.004 228.09 497.004C225.954 497.004 224.555 497.727 223.891 499.172V513H218.246V491.867H223.578L223.734 494.387C224.867 492.447 226.436 491.477 228.441 491.477C229.066 491.477 229.652 491.561 230.199 491.73L230.121 497.16ZM231.586 502.277C231.586 498.983 232.322 496.359 233.793 494.406C235.277 492.453 237.302 491.477 239.867 491.477C241.924 491.477 243.624 492.245 244.965 493.781V483H250.629V513H245.531L245.258 510.754C243.852 512.512 242.042 513.391 239.828 513.391C237.341 513.391 235.342 512.414 233.832 510.461C232.335 508.495 231.586 505.767 231.586 502.277ZM237.23 502.688C237.23 504.667 237.576 506.184 238.266 507.238C238.956 508.293 239.958 508.82 241.273 508.82C243.018 508.82 244.249 508.085 244.965 506.613V498.273C244.262 496.802 243.044 496.066 241.312 496.066C238.591 496.066 237.23 498.273 237.23 502.688Z" fill="black"/>
</svg>
