<?xml version="1.0" standalone="no"?>
<!DOCTYPE svg PUBLIC "-//W3C//DTD SVG 20010904//EN"
 "http://www.w3.org/TR/2001/REC-SVG-20010904/DTD/svg10.dtd">
<svg version="1.0" xmlns="http://www.w3.org/2000/svg"
 width="1858.000000pt" height="982.000000pt" viewBox="0 0 1858.000000 982.000000"
 preserveAspectRatio="xMidYMid meet">
<metadata>
Created by potrace 1.16, written by Peter Selinger 2001-2019
</metadata>
<g transform="translate(0.000000,982.000000) scale(0.100000,-0.100000)"
fill="#000000" stroke="none">
<path d="M6283 8114 c-339 -41 -677 -165 -952 -349 -104 -69 -271 -200 -271
-212 0 -12 133 -153 145 -153 6 0 20 10 31 21 65 73 276 212 449 295 144 69
233 101 381 138 184 46 238 51 489 51 223 -1 249 -3 370 -28 392 -83 717 -253
987 -515 l97 -94 81 73 82 74 -102 98 c-476 456 -1141 680 -1787 601z"/>
<path d="M6286 7564 c-293 -45 -601 -186 -815 -372 -52 -45 -53 -41 43 -142
l58 -60 56 48 c176 151 424 264 673 308 134 24 358 24 484 0 297 -55 548 -184
766 -394 l56 -53 78 73 78 73 -97 92 c-240 227 -553 379 -882 428 -125 18
-376 18 -498 -1z"/>
<path d="M6374 7025 c-98 -15 -199 -45 -289 -85 -71 -32 -208 -119 -262 -167
l-32 -28 73 -78 72 -79 70 53 c80 61 220 129 314 154 101 26 289 31 391 10
166 -33 305 -102 429 -213 l66 -59 78 71 78 72 -70 66 c-243 229 -586 335
-918 283z"/>
<path d="M6447 6572 c-71 -21 -123 -62 -148 -116 -27 -60 -27 -261 0 -314 43
-84 89 -102 263 -102 155 0 197 14 244 82 28 39 29 47 32 170 3 116 1 133 -18
174 -27 55 -73 87 -158 108 -79 20 -141 19 -215 -2z"/>
<path d="M3182 6389 c-114 -57 -136 -217 -40 -306 37 -35 73 -43 189 -43 l109
0 0 -1059 0 -1059 -124 -3 c-122 -4 -125 -5 -163 -35 -55 -45 -76 -86 -76
-149 0 -73 28 -122 88 -160 l48 -30 401 0 c291 0 416 4 455 13 99 23 180 70
262 152 l76 77 216 429 c124 248 226 464 241 512 51 162 51 340 1 499 -14 44
-120 274 -236 509 l-211 429 -77 75 c-83 82 -183 139 -279 159 -33 7 -201 11
-445 11 -381 0 -393 -1 -435 -21z m846 -378 c20 -10 44 -27 53 -37 29 -32 428
-838 438 -885 15 -66 13 -168 -5 -229 -25 -84 -417 -861 -450 -892 -42 -39
-75 -48 -170 -48 l-84 0 0 1061 0 1062 90 -6 c58 -5 104 -14 128 -26z"/>
<path d="M8520 6395 c-46 -21 -68 -42 -91 -87 -18 -36 -19 -81 -19 -1327 0
-887 3 -1298 11 -1318 13 -34 55 -80 91 -99 34 -18 119 -18 161 0 63 26 107
102 107 184 0 17 2 32 5 32 3 0 37 -27 76 -59 76 -65 192 -129 279 -156 73
-22 365 -32 469 -16 87 14 204 58 272 104 27 18 96 79 154 136 86 84 112 118
141 177 62 130 66 165 62 654 l-3 435 -29 84 c-17 46 -47 110 -67 140 -45 67
-243 241 -329 289 -99 56 -139 62 -395 62 -311 0 -340 -9 -532 -160 l-98 -77
-5 441 c-5 438 -5 441 -28 481 -46 81 -150 116 -232 80z m1128 -1167 c77 -52
184 -151 198 -184 21 -49 21 -873 0 -912 -17 -32 -185 -182 -224 -199 -41 -18
-372 -17 -417 1 -18 8 -113 81 -210 163 -130 110 -181 159 -196 190 -19 39
-20 57 -17 311 3 269 3 270 28 304 23 32 313 289 368 325 39 27 83 32 258 30
168 -2 171 -2 212 -29z"/>
<path d="M13865 5711 c-16 -4 -40 -13 -51 -19 -30 -16 -83 -78 -89 -105 -3
-12 -4 -625 -3 -1363 l3 -1341 28 -36 c79 -104 234 -102 304 5 l28 42 5 423 5
424 75 -77 c151 -154 245 -194 454 -194 235 0 284 22 542 244 214 183 272 245
314 331 59 120 62 146 58 573 l-3 387 -27 69 c-44 114 -89 168 -287 340 -317
278 -342 290 -571 291 -145 0 -159 -2 -218 -26 -101 -43 -169 -89 -258 -173
l-84 -78 0 71 c0 75 -14 115 -54 159 -40 45 -112 67 -171 53z m906 -401 c92
-65 369 -315 386 -349 16 -33 18 -67 18 -371 0 -306 -2 -338 -18 -372 -22 -43
-332 -320 -398 -355 -58 -32 -172 -32 -232 -2 -65 33 -384 352 -413 414 -23
49 -24 57 -24 316 0 263 0 265 25 315 33 66 354 385 417 415 62 29 190 23 239
-11z"/>
<path d="M6023 5609 c-23 -11 -53 -38 -68 -60 -60 -91 -37 -203 53 -260 l46
-29 208 0 208 0 0 -670 0 -670 -200 0 c-209 0 -247 -6 -293 -48 -52 -47 -72
-147 -43 -215 17 -42 66 -83 114 -97 25 -8 226 -10 628 -8 l591 3 37 29 c93
70 109 183 39 267 -52 61 -85 69 -305 69 l-198 0 -2 793 -3 793 -28 42 c-52
80 -62 82 -424 82 -301 0 -320 -1 -360 -21z"/>
<path d="M11615 5616 c-225 -56 -458 -267 -537 -486 -23 -65 -23 -68 -23 -530
0 -510 0 -511 61 -630 100 -193 333 -372 535 -410 84 -16 571 -12 652 5 137
29 282 118 408 252 74 78 116 147 151 243 23 65 23 68 23 525 0 506 0 507 -65
634 -79 154 -259 311 -438 380 -67 26 -68 26 -392 28 -234 1 -339 -2 -375 -11z
m661 -381 c27 -13 86 -56 131 -95 62 -53 85 -79 93 -107 8 -26 10 -174 8 -460
-3 -487 9 -431 -124 -546 -124 -108 -97 -102 -419 -102 -265 0 -282 1 -312 20
-60 38 -195 169 -209 202 -11 26 -14 118 -14 444 0 363 2 415 17 446 24 51
187 190 243 208 33 10 111 14 291 14 242 1 246 1 295 -24z"/>
</g>
</svg>
